<?xml version="1.0" encoding="UTF-8" standalone="no"?>
<svg width="1062.99px" height="354.331px" viewBox="0 0 1062.99 354.331"
 xmlns="http://www.w3.org/2000/svg" xmlns:xlink="http://www.w3.org/1999/xlink" version="1.2" baseProfile="tiny">
<title>Clapping_music</title>
<desc>Generated by MuseScore 3.3.4</desc>
<polyline class="StaffLines" fill="none" stroke="#000000" stroke-width="2.00" stroke-linejoin="bevel" points="99.2126,175.011 963.78,175.011"/>
<polyline class="BarLine" fill="none" stroke="#000000" stroke-width="12.50" stroke-linejoin="bevel" points="162.967,124.008 162.967,226.014"/>
<polyline class="BarLine" fill="none" stroke="#000000" stroke-width="4.00" stroke-linejoin="bevel" points="181.218,124.008 181.218,226.014"/>
<path class="BarLine" d="M192.957,166.515 C191.85,165.408 191.297,164.074 191.297,162.511 C191.297,160.949 191.85,159.614 192.957,158.507 C194.063,157.4 195.398,156.847 196.961,156.847 C198.523,156.847 199.858,157.4 200.964,158.507 C202.071,159.614 202.625,160.949 202.625,162.511 C202.625,164.074 202.071,165.408 200.964,166.515 C199.858,167.622 198.523,168.175 196.961,168.175 C195.398,168.175 194.063,167.622 192.957,166.515"/>
<path class="BarLine" d="M192.957,191.517 C191.85,190.41 191.297,189.075 191.297,187.513 C191.297,185.95 191.85,184.615 192.957,183.509 C194.063,182.402 195.398,181.849 196.961,181.849 C198.523,181.849 199.858,182.402 200.964,183.509 C202.071,184.615 202.625,185.95 202.625,187.513 C202.625,189.075 202.071,190.41 200.964,191.517 C199.858,192.623 198.523,193.177 196.961,193.177 C195.398,193.177 194.063,192.623 192.957,191.517"/>
<path class="BarLine" d="M919.523,166.515 C918.416,165.408 917.863,164.074 917.863,162.511 C917.863,160.949 918.416,159.614 919.523,158.507 C920.63,157.4 921.964,156.847 923.527,156.847 C925.089,156.847 926.424,157.4 927.531,158.507 C928.638,159.614 929.191,160.949 929.191,162.511 C929.191,164.074 928.638,165.408 927.531,166.515 C926.424,167.622 925.089,168.175 923.527,168.175 C921.964,168.175 920.63,167.622 919.523,166.515"/>
<path class="BarLine" d="M919.523,191.517 C918.416,190.41 917.863,189.075 917.863,187.513 C917.863,185.95 918.416,184.615 919.523,183.509 C920.63,182.402 921.964,181.849 923.527,181.849 C925.089,181.849 926.424,182.402 927.531,183.509 C928.638,184.615 929.191,185.95 929.191,187.513 C929.191,189.075 928.638,190.41 927.531,191.517 C926.424,192.623 925.089,193.177 923.527,193.177 C921.964,193.177 920.63,192.623 919.523,191.517"/>
<polyline class="BarLine" fill="none" stroke="#000000" stroke-width="4.00" stroke-linejoin="bevel" points="939.278,124.008 939.278,226.014"/>
<polyline class="BarLine" fill="none" stroke="#000000" stroke-width="12.50" stroke-linejoin="bevel" points="957.529,124.008 957.529,226.014"/>
<polyline class="Stem" fill="none" stroke="#000000" stroke-width="3.25" stroke-linecap="round" stroke-linejoin="bevel" points="266.762,179.707 266.762,250.016"/>
<polyline class="Stem" fill="none" stroke="#000000" stroke-width="3.25" stroke-linecap="round" stroke-linejoin="bevel" points="320.835,179.707 320.835,250.016"/>
<polyline class="Stem" fill="none" stroke="#000000" stroke-width="3.25" stroke-linecap="round" stroke-linejoin="bevel" points="374.909,179.707 374.909,250.016"/>
<polyline class="Stem" fill="none" stroke="#000000" stroke-width="3.25" stroke-linecap="round" stroke-linejoin="bevel" points="483.056,179.707 483.056,250.016"/>
<polyline class="Stem" fill="none" stroke="#000000" stroke-width="3.25" stroke-linecap="round" stroke-linejoin="bevel" points="537.129,179.707 537.129,250.016"/>
<polyline class="Stem" fill="none" stroke="#000000" stroke-width="3.25" stroke-linecap="round" stroke-linejoin="bevel" points="645.276,179.707 645.276,262.517"/>
<polyline class="Stem" fill="none" stroke="#000000" stroke-width="3.25" stroke-linecap="round" stroke-linejoin="bevel" points="753.423,179.707 753.423,250.016"/>
<polyline class="Stem" fill="none" stroke="#000000" stroke-width="3.25" stroke-linecap="round" stroke-linejoin="bevel" points="807.497,179.707 807.497,250.016"/>
<path class="Note" d="M287.109,161.241 C290.234,161.241 292.871,162.055 295.02,163.683 C297.038,165.441 298.047,167.654 298.047,170.324 C298.047,174.816 295.736,179.015 291.113,182.921 C286.426,186.827 281.413,188.781 276.074,188.781 C272.949,188.781 270.313,187.967 268.164,186.339 C266.146,184.581 265.137,182.368 265.137,179.699 C265.137,175.206 267.481,171.007 272.168,167.101 C276.725,163.195 281.706,161.241 287.109,161.241"/>
<path class="Note" d="M341.183,161.241 C344.308,161.241 346.945,162.055 349.093,163.683 C351.111,165.441 352.12,167.654 352.12,170.324 C352.12,174.816 349.809,179.015 345.187,182.921 C340.499,186.827 335.486,188.781 330.148,188.781 C327.023,188.781 324.386,187.967 322.238,186.339 C320.219,184.581 319.21,182.368 319.21,179.699 C319.21,175.206 321.554,171.007 326.242,167.101 C330.799,163.195 335.779,161.241 341.183,161.241"/>
<path class="Note" d="M395.256,161.241 C398.381,161.241 401.018,162.055 403.167,163.683 C405.185,165.441 406.194,167.654 406.194,170.324 C406.194,174.816 403.883,179.015 399.26,182.921 C394.573,186.827 389.56,188.781 384.221,188.781 C381.096,188.781 378.46,187.967 376.311,186.339 C374.293,184.581 373.284,182.368 373.284,179.699 C373.284,175.206 375.627,171.007 380.315,167.101 C384.872,163.195 389.853,161.241 395.256,161.241"/>
<path class="Note" d="M503.403,161.241 C506.528,161.241 509.165,162.055 511.314,163.683 C513.332,165.441 514.341,167.654 514.341,170.324 C514.341,174.816 512.03,179.015 507.407,182.921 C502.72,186.827 497.707,188.781 492.368,188.781 C489.243,188.781 486.607,187.967 484.458,186.339 C482.44,184.581 481.431,182.368 481.431,179.699 C481.431,175.206 483.774,171.007 488.462,167.101 C493.019,163.195 498,161.241 503.403,161.241"/>
<path class="Note" d="M557.477,161.241 C560.602,161.241 563.239,162.055 565.387,163.683 C567.405,165.441 568.414,167.654 568.414,170.324 C568.414,174.816 566.103,179.015 561.481,182.921 C556.793,186.827 551.78,188.781 546.442,188.781 C543.317,188.781 540.68,187.967 538.532,186.339 C536.513,184.581 535.504,182.368 535.504,179.699 C535.504,175.206 537.848,171.007 542.535,167.101 C547.093,163.195 552.073,161.241 557.477,161.241"/>
<path class="Note" d="M665.624,161.241 C668.749,161.241 671.386,162.055 673.534,163.683 C675.552,165.441 676.561,167.654 676.561,170.324 C676.561,174.816 674.25,179.015 669.628,182.921 C664.94,186.827 659.927,188.781 654.589,188.781 C651.464,188.781 648.827,187.967 646.679,186.339 C644.66,184.581 643.651,182.368 643.651,179.699 C643.651,175.206 645.995,171.007 650.682,167.101 C655.24,163.195 660.22,161.241 665.624,161.241"/>
<path class="Note" d="M773.771,161.241 C776.896,161.241 779.533,162.055 781.681,163.683 C783.699,165.441 784.708,167.654 784.708,170.324 C784.708,174.816 782.397,179.015 777.775,182.921 C773.087,186.827 768.074,188.781 762.736,188.781 C759.611,188.781 756.974,187.967 754.826,186.339 C752.807,184.581 751.798,182.368 751.798,179.699 C751.798,175.206 754.142,171.007 758.829,167.101 C763.387,163.195 768.367,161.241 773.771,161.241"/>
<path class="Note" d="M827.844,161.241 C830.969,161.241 833.606,162.055 835.755,163.683 C837.773,165.441 838.782,167.654 838.782,170.324 C838.782,174.816 836.471,179.015 831.848,182.921 C827.161,186.827 822.148,188.781 816.809,188.781 C813.684,188.781 811.048,187.967 808.899,186.339 C806.881,184.581 805.872,182.368 805.872,179.699 C805.872,175.206 808.215,171.007 812.903,167.101 C817.46,163.195 822.441,161.241 827.844,161.241"/>
<path class="Rest" d="M434.388,154.503 C436.277,154.503 437.709,155.024 438.685,156.066 C439.662,157.238 440.183,158.344 440.248,159.386 C440.378,160.363 440.704,161.469 441.224,162.706 C441.81,163.748 442.559,164.269 443.471,164.269 C444.187,164.269 445.261,163.455 446.693,161.827 C447.995,160.395 448.939,159.126 449.525,158.019 C449.851,157.368 450.306,157.042 450.892,157.042 L450.99,157.042 C451.641,157.107 452.097,157.433 452.357,158.019 L440.053,200.011 C439.402,200.662 438.49,200.988 437.318,200.988 C436.146,200.988 435.235,200.662 434.584,200.011 L446.303,167.394 C442.136,168.891 438.62,169.64 435.756,169.64 C433.412,169.64 431.394,168.891 429.701,167.394 C427.943,165.962 427.064,164.074 427.064,161.73 C427.064,159.712 427.78,158.019 429.213,156.652 C430.645,155.219 432.37,154.503 434.388,154.503"/>
<path class="Rest" d="M596.609,154.503 C598.497,154.503 599.929,155.024 600.906,156.066 C601.882,157.238 602.403,158.344 602.468,159.386 C602.599,160.363 602.924,161.469 603.445,162.706 C604.031,163.748 604.78,164.269 605.691,164.269 C606.407,164.269 607.481,163.455 608.914,161.827 C610.216,160.395 611.16,159.126 611.746,158.019 C612.071,157.368 612.527,157.042 613.113,157.042 L613.211,157.042 C613.862,157.107 614.317,157.433 614.578,158.019 L602.273,200.011 C601.622,200.662 600.711,200.988 599.539,200.988 C598.367,200.988 597.455,200.662 596.804,200.011 L608.523,167.394 C604.356,168.891 600.841,169.64 597.976,169.64 C595.632,169.64 593.614,168.891 591.921,167.394 C590.164,165.962 589.285,164.074 589.285,161.73 C589.285,159.712 590.001,158.019 591.433,156.652 C592.865,155.219 594.591,154.503 596.609,154.503"/>
<path class="Rest" d="M704.756,154.503 C706.644,154.503 708.076,155.024 709.053,156.066 C710.029,157.238 710.55,158.344 710.615,159.386 C710.746,160.363 711.071,161.469 711.592,162.706 C712.178,163.748 712.927,164.269 713.838,164.269 C714.554,164.269 715.628,163.455 717.061,161.827 C718.363,160.395 719.307,159.126 719.893,158.019 C720.218,157.368 720.674,157.042 721.26,157.042 L721.358,157.042 C722.009,157.107 722.464,157.433 722.725,158.019 L710.42,200.011 C709.769,200.662 708.858,200.988 707.686,200.988 C706.514,200.988 705.602,200.662 704.951,200.011 L716.67,167.394 C712.503,168.891 708.988,169.64 706.123,169.64 C703.779,169.64 701.761,168.891 700.068,167.394 C698.311,165.962 697.432,164.074 697.432,161.73 C697.432,159.712 698.148,158.019 699.58,156.652 C701.012,155.219 702.738,154.503 704.756,154.503"/>
<path class="Rest" d="M866.976,154.503 C868.864,154.503 870.297,155.024 871.273,156.066 C872.25,157.238 872.771,158.344 872.836,159.386 C872.966,160.363 873.292,161.469 873.812,162.706 C874.398,163.748 875.147,164.269 876.059,164.269 C876.775,164.269 877.849,163.455 879.281,161.827 C880.583,160.395 881.527,159.126 882.113,158.019 C882.439,157.368 882.894,157.042 883.48,157.042 L883.578,157.042 C884.229,157.107 884.685,157.433 884.945,158.019 L872.641,200.011 C871.989,200.662 871.078,200.988 869.906,200.988 C868.734,200.988 867.823,200.662 867.172,200.011 L878.891,167.394 C874.724,168.891 871.208,169.64 868.344,169.64 C866,169.64 863.982,168.891 862.289,167.394 C860.531,165.962 859.652,164.074 859.652,161.73 C859.652,159.712 860.368,158.019 861.801,156.652 C863.233,155.219 864.958,154.503 866.976,154.503"/>
<path class="Beam" fill-rule="evenodd" d="M265.137,243.765 L376.534,243.765 L376.534,256.266 L265.137,256.266 L265.137,243.765 "/>
<path class="Beam" fill-rule="evenodd" d="M481.431,243.765 L538.754,243.765 L538.754,256.266 L481.431,256.266 L481.431,243.765 "/>
<path class="Beam" fill-rule="evenodd" d="M751.798,243.765 L809.122,243.765 L809.122,256.266 L751.798,256.266 L751.798,243.765 "/>
<path class="Hook" d="M666.405,190.153 C667.903,190.153 669.498,192.595 671.19,197.477 C672.818,202.295 673.632,206.885 673.632,211.247 C673.632,214.958 672.72,218.636 670.897,222.282 C669.009,226.188 666.763,229.574 664.159,232.438 L656.151,241.423 C653.677,244.287 651.464,247.608 649.511,251.384 C647.688,255.03 646.776,258.74 646.776,262.517 L643.651,262.517 L643.651,237.517 L646.776,237.517 C648.534,236.41 651.138,234.652 654.589,232.243 C656.151,231.071 658.495,229.118 661.62,226.384 C664.159,224.04 666.08,221.631 667.382,219.157 C668.749,216.553 669.432,213.916 669.432,211.247 C669.432,205.062 667.642,198.91 664.061,192.79 C664.061,192.79 664.061,192.66 664.061,192.399 C664.061,191.813 664.257,191.325 664.647,190.935 C665.168,190.414 665.754,190.153 666.405,190.153"/>
</svg>
