<?xml version="1.0" encoding="UTF-8" standalone="no"?>
<!DOCTYPE svg PUBLIC "-//W3C//DTD SVG 1.1//EN"
 "http://www.w3.org/Graphics/SVG/1.1/DTD/svg11.dtd">
<!-- Generated by graphviz version 2.43.0 (0)
 -->
<!-- Title: G Pages: 1 -->
<svg width="668pt" height="680pt"
 viewBox="0.00 0.00 668.00 680.18" xmlns="http://www.w3.org/2000/svg" xmlns:xlink="http://www.w3.org/1999/xlink">
<g id="graph0" class="graph" transform="scale(1 1) rotate(0) translate(18 662.18)">
<title>G</title>
<polygon fill="lightgray" stroke="transparent" points="-18,18 -18,-662.18 650,-662.18 650,18 -18,18"/>
<g id="clust1" class="cluster">
<title>cluster1_.{2.while</title>
</g>
<g id="clust2" class="cluster">
<title>cluster_.{2.while</title>
<path fill="#d9d9d9" stroke="#bfbfbf" d="M34,-14C34,-14 98,-14 98,-14 104,-14 110,-20 110,-26 110,-26 110,-367.96 110,-367.96 110,-373.96 104,-379.96 98,-379.96 98,-379.96 34,-379.96 34,-379.96 28,-379.96 22,-373.96 22,-367.96 22,-367.96 22,-26 22,-26 22,-20 28,-14 34,-14"/>
<text text-anchor="middle" x="64" y="-365.56" font-family="DejaVu Sans Bold" font-size="13.00" fill="#7f7f7f">.{2.while</text>
</g>
<g id="clust3" class="cluster">
<title>cluster1_gen</title>
</g>
<g id="clust4" class="cluster">
<title>cluster_gen</title>
<path fill="#d9d9d9" stroke="#bfbfbf" d="M456,-438.96C456,-438.96 606,-438.96 606,-438.96 612,-438.96 618,-444.96 618,-450.96 618,-450.96 618,-618.18 618,-618.18 618,-624.18 612,-630.18 606,-630.18 606,-630.18 456,-630.18 456,-630.18 450,-630.18 444,-624.18 444,-618.18 444,-618.18 444,-450.96 444,-450.96 444,-444.96 450,-438.96 456,-438.96"/>
<text text-anchor="middle" x="466" y="-615.78" font-family="DejaVu Sans Bold" font-size="13.00" fill="#7f7f7f">gen</text>
</g>
<g id="clust5" class="cluster">
<title>cluster1_pump</title>
</g>
<g id="clust6" class="cluster">
<title>cluster_pump</title>
<path fill="#d9d9d9" stroke="#bfbfbf" d="M228,-187C228,-187 420,-187 420,-187 426,-187 432,-193 432,-199 432,-199 432,-618.18 432,-618.18 432,-624.18 426,-630.18 420,-630.18 420,-630.18 228,-630.18 228,-630.18 222,-630.18 216,-624.18 216,-618.18 216,-618.18 216,-199 216,-199 216,-193 222,-187 228,-187"/>
<text text-anchor="middle" x="244.5" y="-615.78" font-family="DejaVu Sans Bold" font-size="13.00" fill="#7f7f7f">pump</text>
</g>
<!-- .{1;__; -->
<g id="node1" class="node">
<title>.{1;__;</title>
<ellipse fill="#b3b3b3" stroke="#b3b3b3" stroke-width="2" cx="33" cy="-465.46" rx="9" ry="9"/>
<text text-anchor="middle" x="33" y="-461.76" font-family="DejaVu Sans Bold" font-size="14.00">;</text>
</g>
<!-- .{2.while1.R__eval_ -->
<g id="node6" class="node">
<title>.{2.while1.R__eval_</title>
<polygon fill="#333333" stroke="#333333" stroke-width="2" points="59,-421.96 7,-421.96 7,-393.96 59,-393.96 59,-421.96"/>
<text text-anchor="middle" x="33" y="-404.56" font-family="DejaVu Sans Mono Bold" font-size="13.00" fill="lightgreen">x &gt; 1</text>
</g>
<!-- .{1;__;&#45;&gt;.{2.while1.R__eval_ -->
<g id="edge1" class="edge">
<title>.{1;__;&#45;&gt;.{2.while1.R__eval_</title>
<path fill="none" stroke="#7f7f7f" stroke-width="2" d="M33,-456.27C33,-448.95 33,-437.93 33,-428.37"/>
<polygon fill="#7f7f7f" stroke="#7f7f7f" stroke-width="2" points="35.1,-428.35 33,-422.35 30.9,-428.35 35.1,-428.35"/>
</g>
<!-- .{1.yield__yield_ -->
<g id="node2" class="node">
<title>.{1.yield__yield_</title>
<path fill="#b3b3b3" stroke="#b3b3b3" stroke-width="2" d="M52.83,-537.96C52.83,-537.96 13.17,-537.96 13.17,-537.96 8.33,-537.96 3.5,-533.13 3.5,-528.29 3.5,-528.29 3.5,-518.63 3.5,-518.63 3.5,-513.79 8.33,-508.96 13.17,-508.96 13.17,-508.96 52.83,-508.96 52.83,-508.96 57.67,-508.96 62.5,-513.79 62.5,-518.63 62.5,-518.63 62.5,-528.29 62.5,-528.29 62.5,-533.13 57.67,-537.96 52.83,-537.96"/>
<text text-anchor="middle" x="33" y="-519.76" font-family="DejaVu Sans Bold" font-size="14.00">yield_</text>
</g>
<!-- .{1.yield__yield_&#45;&gt;.{1;__; -->
<g id="edge2" class="edge">
<title>.{1.yield__yield_&#45;&gt;.{1;__;</title>
<path fill="none" stroke="black" stroke-width="2.5" stroke-dasharray="5,2" d="M33,-508.9C33,-504.04 33,-498.36 33,-492.78"/>
<ellipse fill="none" stroke="black" stroke-width="2.5" cx="33" cy="-483.53" rx="9" ry="9"/>
<text text-anchor="middle" x="33" y="-479.03" font-family="DejaVu Sans Bold" font-size="15.00" fill="blue">⏸</text>
<text text-anchor="middle" x="33" y="-497.4" font-family="DejaVu Sans Bold" font-size="15.00" fill="blue"> </text>
</g>
<!-- entry -->
<g id="node3" class="node">
<title>entry</title>
<polygon fill="darkgreen" stroke="darkgreen" stroke-width="2" points="40,-577.17 40,-586.18 35.9,-592.55 30.1,-592.55 26,-586.18 26,-577.17 30.1,-570.8 35.9,-570.8 40,-577.17"/>
<polygon fill="none" stroke="darkgreen" stroke-width="2" points="44,-575.96 44,-587.39 38.06,-596.61 27.94,-596.61 22,-587.39 22,-575.96 27.94,-566.74 38.06,-566.74 44,-575.96"/>
<text text-anchor="middle" x="33" y="-578.28" font-family="DejaVu Sans Mono Bold" font-size="13.00" fill="lightgreen">x</text>
</g>
<!-- entry&#45;&gt;.{1.yield__yield_ -->
<g id="edge14" class="edge">
<title>entry&#45;&gt;.{1.yield__yield_</title>
<path fill="none" stroke="black" stroke-width="2.5" d="M33,-566.78C33,-559.97 33,-551.66 33,-544.2"/>
<polygon fill="black" stroke="black" stroke-width="2.5" points="35.1,-544.2 33,-538.2 30.9,-544.2 35.1,-544.2"/>
</g>
<!-- .{2.while__again -->
<g id="node4" class="node">
<title>.{2.while__again</title>
<path fill="#b3b3b3" stroke="#b3b3b3" stroke-width="2" d="M88.33,-55C88.33,-55 49.67,-55 49.67,-55 44.83,-55 40,-50.17 40,-45.33 40,-45.33 40,-35.67 40,-35.67 40,-30.83 44.83,-26 49.67,-26 49.67,-26 88.33,-26 88.33,-26 93.17,-26 98,-30.83 98,-35.67 98,-35.67 98,-45.33 98,-45.33 98,-50.17 93.17,-55 88.33,-55"/>
<text text-anchor="middle" x="69" y="-36.8" font-family="DejaVu Sans Bold" font-size="14.00">again</text>
</g>
<!-- .{2.while__again&#45;&gt;.{2.while1.R__eval_ -->
<g id="edge3" class="edge">
<title>.{2.while__again&#45;&gt;.{2.while1.R__eval_</title>
<path fill="none" stroke="#7f7f7f" stroke-width="2.5" stroke-dasharray="5,2" d="M53.69,-55.26C33.36,-75.11 0,-113.95 0,-155 0,-273.48 0,-273.48 0,-273.48 0,-324.6 8.53,-337.24 24,-385.96 24.2,-386.6 24.42,-387.25 24.65,-387.91"/>
<polygon fill="#7f7f7f" stroke="#7f7f7f" stroke-width="2.5" points="22.79,-388.92 26.89,-393.78 26.71,-387.42 22.79,-388.92"/>
</g>
<!-- .{2.while__while_ -->
<g id="node5" class="node">
<title>.{2.while__while_</title>
<path fill="#b3b3b3" stroke="#b3b3b3" stroke-width="2" d="M87.83,-345.96C87.83,-345.96 44.17,-345.96 44.17,-345.96 39.33,-345.96 34.5,-341.13 34.5,-336.29 34.5,-336.29 34.5,-326.63 34.5,-326.63 34.5,-321.79 39.33,-316.96 44.17,-316.96 44.17,-316.96 87.83,-316.96 87.83,-316.96 92.67,-316.96 97.5,-321.79 97.5,-326.63 97.5,-326.63 97.5,-336.29 97.5,-336.29 97.5,-341.13 92.67,-345.96 87.83,-345.96"/>
<text text-anchor="middle" x="66" y="-327.76" font-family="DejaVu Sans Bold" font-size="14.00">while_</text>
</g>
<!-- .{2.while2.{.if1.R__eval_ -->
<g id="node8" class="node">
<title>.{2.while2.{.if1.R__eval_</title>
<polygon fill="#333333" stroke="#333333" stroke-width="2" points="204,-286.48 122,-286.48 122,-258.48 204,-258.48 204,-286.48"/>
<text text-anchor="middle" x="163" y="-269.08" font-family="DejaVu Sans Mono Bold" font-size="13.00" fill="lightgreen">x%%2 == 0</text>
</g>
<!-- .{2.while__while_&#45;&gt;.{2.while2.{.if1.R__eval_ -->
<g id="edge5" class="edge">
<title>.{2.while__while_&#45;&gt;.{2.while2.{.if1.R__eval_</title>
<path fill="none" stroke="#7f7f7f" stroke-width="2" d="M88.99,-316.96C102.96,-308.75 120.88,-298.22 135.59,-289.58"/>
<polygon fill="#7f7f7f" stroke="#7f7f7f" stroke-width="2" points="136.74,-291.34 140.85,-286.49 134.61,-287.72 136.74,-291.34"/>
</g>
<!-- return_ -->
<g id="node19" class="node">
<title>return_</title>
<path fill="#b3b3b3" stroke="#b3b3b3" stroke-width="2" d="M383.83,-286.98C383.83,-286.98 332.17,-286.98 332.17,-286.98 327.33,-286.98 322.5,-282.15 322.5,-277.31 322.5,-277.31 322.5,-267.65 322.5,-267.65 322.5,-262.81 327.33,-257.98 332.17,-257.98 332.17,-257.98 383.83,-257.98 383.83,-257.98 388.67,-257.98 393.5,-262.81 393.5,-267.65 393.5,-267.65 393.5,-277.31 393.5,-277.31 393.5,-282.15 388.67,-286.98 383.83,-286.98"/>
<text text-anchor="middle" x="358" y="-268.78" font-family="DejaVu Sans Bold" font-size="14.00">return_</text>
</g>
<!-- .{2.while__while_&#45;&gt;return_ -->
<g id="edge4" class="edge">
<title>.{2.while__while_&#45;&gt;return_</title>
<path fill="none" stroke="black" stroke-width="2.5" stroke-dasharray="5,2" d="M97.57,-327.1C144.62,-321.68 235.9,-309.51 316.13,-288.66"/>
<polygon fill="black" stroke="black" stroke-width="2.5" points="317.12,-290.57 322.38,-287.01 316.04,-286.51 317.12,-290.57"/>
</g>
<!-- .{2.while1.R__eval_&#45;&gt;.{2.while__while_ -->
<g id="edge6" class="edge">
<title>.{2.while1.R__eval_&#45;&gt;.{2.while__while_</title>
<path fill="none" stroke="black" stroke-width="2.5" d="M38.9,-393.64C44.04,-382.03 51.57,-365.03 57.39,-351.9"/>
<polygon fill="black" stroke="black" stroke-width="2.5" points="59.42,-352.51 59.93,-346.17 55.58,-350.8 59.42,-352.51"/>
</g>
<!-- .{2.while2.{.if__if_ -->
<g id="node7" class="node">
<title>.{2.while2.{.if__if_</title>
<path fill="#b3b3b3" stroke="#b3b3b3" stroke-width="2" d="M169.33,-228C169.33,-228 156.67,-228 156.67,-228 151.83,-228 147,-223.17 147,-218.33 147,-218.33 147,-208.67 147,-208.67 147,-203.83 151.83,-199 156.67,-199 156.67,-199 169.33,-199 169.33,-199 174.17,-199 179,-203.83 179,-208.67 179,-208.67 179,-218.33 179,-218.33 179,-223.17 174.17,-228 169.33,-228"/>
<text text-anchor="middle" x="163" y="-209.8" font-family="DejaVu Sans Bold" font-size="14.00">if_</text>
</g>
<!-- .{2.while2.{.if2.yield.R__eval_ -->
<g id="node10" class="node">
<title>.{2.while2.{.if2.yield.R__eval_</title>
<polygon fill="#333333" stroke="#333333" stroke-width="2" points="204,-170 122,-170 122,-142 204,-142 204,-170"/>
<text text-anchor="middle" x="163" y="-152.6" font-family="DejaVu Sans Mono Bold" font-size="13.00" fill="lightgreen">x &lt;&#45; x/2L</text>
</g>
<!-- .{2.while2.{.if__if_&#45;&gt;.{2.while2.{.if2.yield.R__eval_ -->
<g id="edge8" class="edge">
<title>.{2.while2.{.if__if_&#45;&gt;.{2.while2.{.if2.yield.R__eval_</title>
<path fill="none" stroke="#7f7f7f" stroke-width="2" d="M163,-198.78C163,-192.1 163,-183.94 163,-176.61"/>
<polygon fill="#7f7f7f" stroke="#7f7f7f" stroke-width="2" points="165.1,-176.18 163,-170.18 160.9,-176.18 165.1,-176.18"/>
</g>
<!-- .{2.while2.{.if3.yield.R__eval_ -->
<g id="node12" class="node">
<title>.{2.while2.{.if3.yield.R__eval_</title>
<polygon fill="#333333" stroke="#333333" stroke-width="2" points="353.5,-170 226.5,-170 226.5,-142 353.5,-142 353.5,-170"/>
<text text-anchor="middle" x="290" y="-152.6" font-family="DejaVu Sans Mono Bold" font-size="13.00" fill="lightgreen">x &lt;&#45; 3L * x + 1</text>
</g>
<!-- .{2.while2.{.if__if_&#45;&gt;.{2.while2.{.if3.yield.R__eval_ -->
<g id="edge7" class="edge">
<title>.{2.while2.{.if__if_&#45;&gt;.{2.while2.{.if3.yield.R__eval_</title>
<path fill="none" stroke="#7f7f7f" stroke-width="2" d="M179.08,-205.47C197.87,-197.26 229.52,-183.43 254.21,-172.64"/>
<polygon fill="#7f7f7f" stroke="#7f7f7f" stroke-width="2" points="255.35,-174.44 260,-170.11 253.66,-170.59 255.35,-174.44"/>
</g>
<!-- .{2.while2.{.if1.R__eval_&#45;&gt;.{2.while2.{.if__if_ -->
<g id="edge9" class="edge">
<title>.{2.while2.{.if1.R__eval_&#45;&gt;.{2.while2.{.if__if_</title>
<path fill="none" stroke="black" stroke-width="2.5" d="M163,-258.26C163,-251.18 163,-242.3 163,-234.39"/>
<polygon fill="black" stroke="black" stroke-width="2.5" points="165.1,-234.04 163,-228.04 160.9,-234.04 165.1,-234.04"/>
</g>
<!-- .{2.while2.{.if2.yield__yield_ -->
<g id="node9" class="node">
<title>.{2.while2.{.if2.yield__yield_</title>
<path fill="#b3b3b3" stroke="#b3b3b3" stroke-width="2" d="M176.83,-113C176.83,-113 137.17,-113 137.17,-113 132.33,-113 127.5,-108.17 127.5,-103.33 127.5,-103.33 127.5,-93.67 127.5,-93.67 127.5,-88.83 132.33,-84 137.17,-84 137.17,-84 176.83,-84 176.83,-84 181.67,-84 186.5,-88.83 186.5,-93.67 186.5,-93.67 186.5,-103.33 186.5,-103.33 186.5,-108.17 181.67,-113 176.83,-113"/>
<text text-anchor="middle" x="157" y="-94.8" font-family="DejaVu Sans Bold" font-size="14.00">yield_</text>
</g>
<!-- .{2.while2.{.if2.yield__yield_&#45;&gt;.{2.while__again -->
<g id="edge10" class="edge">
<title>.{2.while2.{.if2.yield__yield_&#45;&gt;.{2.while__again</title>
<path fill="none" stroke="black" stroke-width="2.5" stroke-dasharray="5,2" d="M135.7,-83.94C126.68,-78.21 115.92,-71.36 105.7,-64.85"/>
<ellipse fill="none" stroke="black" stroke-width="2.5" cx="98" cy="-59.96" rx="9" ry="9"/>
<text text-anchor="middle" x="97.16" y="-55.92" font-family="DejaVu Sans Bold" font-size="15.00" fill="blue">⏸</text>
<text text-anchor="middle" x="128.95" y="-76.15" font-family="DejaVu Sans Bold" font-size="15.00" fill="blue"> </text>
</g>
<!-- .{2.while2.{.if2.yield.R__eval_&#45;&gt;.{2.while2.{.if2.yield__yield_ -->
<g id="edge11" class="edge">
<title>.{2.while2.{.if2.yield.R__eval_&#45;&gt;.{2.while2.{.if2.yield__yield_</title>
<path fill="none" stroke="black" stroke-width="2.5" d="M161.58,-141.85C160.85,-135.14 159.95,-126.83 159.15,-119.36"/>
<polygon fill="black" stroke="black" stroke-width="2.5" points="161.23,-119.07 158.5,-113.33 157.05,-119.52 161.23,-119.07"/>
</g>
<!-- .{2.while2.{.if3.yield__yield_ -->
<g id="node11" class="node">
<title>.{2.while2.{.if3.yield__yield_</title>
<path fill="#b3b3b3" stroke="#b3b3b3" stroke-width="2" d="M283.83,-113C283.83,-113 244.17,-113 244.17,-113 239.33,-113 234.5,-108.17 234.5,-103.33 234.5,-103.33 234.5,-93.67 234.5,-93.67 234.5,-88.83 239.33,-84 244.17,-84 244.17,-84 283.83,-84 283.83,-84 288.67,-84 293.5,-88.83 293.5,-93.67 293.5,-93.67 293.5,-103.33 293.5,-103.33 293.5,-108.17 288.67,-113 283.83,-113"/>
<text text-anchor="middle" x="264" y="-94.8" font-family="DejaVu Sans Bold" font-size="14.00">yield_</text>
</g>
<!-- .{2.while2.{.if3.yield__yield_&#45;&gt;.{2.while__again -->
<g id="edge12" class="edge">
<title>.{2.while2.{.if3.yield__yield_&#45;&gt;.{2.while__again</title>
<path fill="none" stroke="black" stroke-width="2.5" stroke-dasharray="5,2" d="M234.21,-85.11C233.13,-84.72 232.06,-84.35 231,-84 192.73,-71.21 148.35,-59.8 115.73,-52.03"/>
<ellipse fill="none" stroke="black" stroke-width="2.5" cx="106.78" cy="-49.94" rx="9" ry="9"/>
<text text-anchor="middle" x="105.81" y="-46.21" font-family="DejaVu Sans Bold" font-size="15.00" fill="blue">⏸</text>
<text text-anchor="middle" x="226.67" y="-78.94" font-family="DejaVu Sans Bold" font-size="15.00" fill="blue"> </text>
</g>
<!-- .{2.while2.{.if3.yield.R__eval_&#45;&gt;.{2.while2.{.if3.yield__yield_ -->
<g id="edge13" class="edge">
<title>.{2.while2.{.if3.yield.R__eval_&#45;&gt;.{2.while2.{.if3.yield__yield_</title>
<path fill="none" stroke="black" stroke-width="2.5" d="M283.84,-141.85C280.63,-135 276.65,-126.5 273.09,-118.91"/>
<polygon fill="black" stroke="black" stroke-width="2.5" points="274.93,-117.88 270.48,-113.33 271.12,-119.66 274.93,-117.88"/>
</g>
<!-- gen__return_ -->
<g id="node13" class="node">
<title>gen__return_</title>
<path fill="#b3b3b3" stroke="#b3b3b3" stroke-width="2" d="M595.83,-479.96C595.83,-479.96 544.17,-479.96 544.17,-479.96 539.33,-479.96 534.5,-475.13 534.5,-470.29 534.5,-470.29 534.5,-460.63 534.5,-460.63 534.5,-455.79 539.33,-450.96 544.17,-450.96 544.17,-450.96 595.83,-450.96 595.83,-450.96 600.67,-450.96 605.5,-455.79 605.5,-460.63 605.5,-460.63 605.5,-470.29 605.5,-470.29 605.5,-475.13 600.67,-479.96 595.83,-479.96"/>
<text text-anchor="middle" x="570" y="-461.76" font-family="DejaVu Sans Bold" font-size="14.00">return_</text>
</g>
<!-- gen__stop_ -->
<g id="node14" class="node">
<title>gen__stop_</title>
<path fill="#b3b3b3" stroke="#b3b3b3" stroke-width="2" d="M502.33,-479.96C502.33,-479.96 465.67,-479.96 465.67,-479.96 460.83,-479.96 456,-475.13 456,-470.29 456,-470.29 456,-460.63 456,-460.63 456,-455.79 460.83,-450.96 465.67,-450.96 465.67,-450.96 502.33,-450.96 502.33,-450.96 507.17,-450.96 512,-455.79 512,-460.63 512,-460.63 512,-470.29 512,-470.29 512,-475.13 507.17,-479.96 502.33,-479.96"/>
<text text-anchor="middle" x="484" y="-461.76" font-family="DejaVu Sans Bold" font-size="14.00">stop_</text>
</g>
<!-- gen__yield_ -->
<g id="node15" class="node">
<title>gen__yield_</title>
<path fill="#b3b3b3" stroke="#b3b3b3" stroke-width="2" d="M550.83,-596.18C550.83,-596.18 511.17,-596.18 511.17,-596.18 506.33,-596.18 501.5,-591.34 501.5,-586.51 501.5,-586.51 501.5,-576.84 501.5,-576.84 501.5,-572.01 506.33,-567.18 511.17,-567.18 511.17,-567.18 550.83,-567.18 550.83,-567.18 555.67,-567.18 560.5,-572.01 560.5,-576.84 560.5,-576.84 560.5,-586.51 560.5,-586.51 560.5,-591.34 555.67,-596.18 550.83,-596.18"/>
<text text-anchor="middle" x="531" y="-577.98" font-family="DejaVu Sans Bold" font-size="14.00">yield_</text>
</g>
<!-- pump -->
<g id="node16" class="node">
<title>pump</title>
<path fill="#b3b3b3" stroke="#b3b3b3" stroke-width="2" d="M342.33,-596.18C342.33,-596.18 303.67,-596.18 303.67,-596.18 298.83,-596.18 294,-591.34 294,-586.51 294,-586.51 294,-576.84 294,-576.84 294,-572.01 298.83,-567.18 303.67,-567.18 303.67,-567.18 342.33,-567.18 342.33,-567.18 347.17,-567.18 352,-572.01 352,-576.84 352,-576.84 352,-586.51 352,-586.51 352,-591.34 347.17,-596.18 342.33,-596.18"/>
<text text-anchor="middle" x="323" y="-577.98" font-family="DejaVu Sans Bold" font-size="14.00">pump</text>
</g>
<!-- pump__afterExit -->
<g id="node17" class="node">
<title>pump__afterExit</title>
<path fill="#b3b3b3" stroke="#b3b3b3" stroke-width="2" d="M302.33,-537.96C302.33,-537.96 237.67,-537.96 237.67,-537.96 232.83,-537.96 228,-533.13 228,-528.29 228,-528.29 228,-518.63 228,-518.63 228,-513.79 232.83,-508.96 237.67,-508.96 237.67,-508.96 302.33,-508.96 302.33,-508.96 307.17,-508.96 312,-513.79 312,-518.63 312,-518.63 312,-528.29 312,-528.29 312,-533.13 307.17,-537.96 302.33,-537.96"/>
<text text-anchor="middle" x="270" y="-519.76" font-family="DejaVu Sans Bold" font-size="14.00">afterExit</text>
</g>
<!-- pump&#45;&gt;pump__afterExit -->
<g id="edge15" class="edge">
<title>pump&#45;&gt;pump__afterExit</title>
<path fill="none" stroke="#7f7f7f" stroke-width="2" d="M310.17,-567.07C303.37,-559.86 294.92,-550.89 287.52,-543.05"/>
<polygon fill="#7f7f7f" stroke="#7f7f7f" stroke-width="2" points="288.72,-541.26 283.08,-538.33 285.67,-544.14 288.72,-541.26"/>
</g>
<!-- runPump -->
<g id="node20" class="node">
<title>runPump</title>
<path fill="#b3b3b3" stroke="#b3b3b3" stroke-width="2" d="M409.83,-537.96C409.83,-537.96 344.17,-537.96 344.17,-537.96 339.33,-537.96 334.5,-533.13 334.5,-528.29 334.5,-528.29 334.5,-518.63 334.5,-518.63 334.5,-513.79 339.33,-508.96 344.17,-508.96 344.17,-508.96 409.83,-508.96 409.83,-508.96 414.67,-508.96 419.5,-513.79 419.5,-518.63 419.5,-518.63 419.5,-528.29 419.5,-528.29 419.5,-533.13 414.67,-537.96 409.83,-537.96"/>
<text text-anchor="middle" x="377" y="-519.76" font-family="DejaVu Sans Bold" font-size="14.00">runPump</text>
</g>
<!-- pump&#45;&gt;runPump -->
<g id="edge16" class="edge">
<title>pump&#45;&gt;runPump</title>
<path fill="none" stroke="#7f7f7f" stroke-width="2.5" stroke-dasharray="5,2" d="M336.07,-567.07C343,-559.86 351.61,-550.89 359.15,-543.05"/>
<polygon fill="#7f7f7f" stroke="#7f7f7f" stroke-width="2.5" points="361.03,-544.12 363.67,-538.33 358,-541.21 361.03,-544.12"/>
</g>
<!-- pump__afterExit&#45;&gt;gen__return_ -->
<g id="edge17" class="edge">
<title>pump__afterExit&#45;&gt;gen__return_</title>
<path fill="none" stroke="black" stroke-width="2" d="M312.06,-511.49C316.08,-510.58 320.11,-509.72 324,-508.96 413.23,-491.61 439.56,-501.26 528.43,-480.51"/>
<polygon fill="black" stroke="black" stroke-width="2" points="529.02,-482.53 534.38,-479.1 528.05,-478.44 529.02,-482.53"/>
</g>
<!-- pump__afterExit&#45;&gt;gen__stop_ -->
<g id="edge18" class="edge">
<title>pump__afterExit&#45;&gt;gen__stop_</title>
<path fill="none" stroke="black" stroke-width="2" d="M312.13,-511.83C316.14,-510.85 320.15,-509.88 324,-508.96 378.86,-495.89 395.38,-497.67 450.06,-480.5"/>
<polygon fill="black" stroke="black" stroke-width="2" points="450.75,-482.48 455.83,-478.66 449.48,-478.48 450.75,-482.48"/>
</g>
<!-- pump__doExits -->
<g id="node18" class="node">
<title>pump__doExits</title>
<path fill="#b3b3b3" stroke="#b3b3b3" stroke-width="2" d="M337.33,-228C337.33,-228 284.67,-228 284.67,-228 279.83,-228 275,-223.17 275,-218.33 275,-218.33 275,-208.67 275,-208.67 275,-203.83 279.83,-199 284.67,-199 284.67,-199 337.33,-199 337.33,-199 342.17,-199 347,-203.83 347,-208.67 347,-208.67 347,-218.33 347,-218.33 347,-223.17 342.17,-228 337.33,-228"/>
<text text-anchor="middle" x="311" y="-209.8" font-family="DejaVu Sans Bold" font-size="14.00">doExits</text>
</g>
<!-- return_&#45;&gt;pump__doExits -->
<g id="edge19" class="edge">
<title>return_&#45;&gt;pump__doExits</title>
<path fill="none" stroke="#7f7f7f" stroke-width="2" d="M346.86,-257.98C340.75,-250.56 333.07,-241.26 326.39,-233.16"/>
<polygon fill="#7f7f7f" stroke="#7f7f7f" stroke-width="2" points="327.82,-231.59 322.38,-228.3 324.58,-234.27 327.82,-231.59"/>
</g>
<!-- stop_ -->
<g id="node21" class="node">
<title>stop_</title>
<polygon fill="darkred" stroke="darkred" stroke-width="2" points="296.28,-267.73 296.28,-277.23 277.37,-283.95 250.63,-283.95 231.72,-277.23 231.72,-267.73 250.63,-261.01 277.37,-261.01 296.28,-267.73"/>
<polygon fill="none" stroke="darkred" stroke-width="2" points="300.29,-264.92 300.29,-280.05 278.06,-287.94 249.94,-287.94 227.71,-280.05 227.71,-264.92 249.94,-257.02 278.06,-257.02 300.29,-264.92"/>
<text text-anchor="middle" x="264" y="-268.78" font-family="DejaVu Sans Bold" font-size="14.00" fill="pink">stop_</text>
</g>
<!-- stop_&#45;&gt;pump__doExits -->
<g id="edge20" class="edge">
<title>stop_&#45;&gt;pump__doExits</title>
<path fill="none" stroke="#7f7f7f" stroke-width="2.5" stroke-dasharray="5,2" d="M276.1,-256.81C282.14,-249.49 289.5,-240.57 295.9,-232.8"/>
<polygon fill="#7f7f7f" stroke="#7f7f7f" stroke-width="2.5" points="297.55,-234.11 299.74,-228.15 294.31,-231.44 297.55,-234.11"/>
</g>
</g>
</svg>
