<?xml version="1.0" encoding="UTF-8" standalone="no"?>
<!DOCTYPE svg PUBLIC "-//W3C//DTD SVG 1.1//EN"
 "http://www.w3.org/Graphics/SVG/1.1/DTD/svg11.dtd">
<!-- Generated by graphviz version 2.43.0 (0)
 -->
<!-- Title: G Pages: 1 -->
<svg width="1721pt" height="1528pt"
 viewBox="0.00 0.00 1721.00 1528.18" xmlns="http://www.w3.org/2000/svg" xmlns:xlink="http://www.w3.org/1999/xlink">
<g id="graph0" class="graph" transform="scale(1 1) rotate(0) translate(18 1510.18)">
<title>G</title>
<polygon fill="#e5e5e5" stroke="transparent" points="-18,18 -18,-1510.18 1703,-1510.18 1703,18 -18,18"/>
<g id="clust1" class="cluster">
<title>cluster1_.{1.&lt;&#45;2.await</title>
</g>
<g id="clust2" class="cluster">
<title>cluster_.{1.&lt;&#45;2.await</title>
<path fill="#d9d9d9" stroke="#bfbfbf" d="M995,-1209.96C995,-1209.96 1087,-1209.96 1087,-1209.96 1093,-1209.96 1099,-1215.96 1099,-1221.96 1099,-1221.96 1099,-1388.96 1099,-1388.96 1099,-1394.96 1093,-1400.96 1087,-1400.96 1087,-1400.96 995,-1400.96 995,-1400.96 989,-1400.96 983,-1394.96 983,-1388.96 983,-1388.96 983,-1221.96 983,-1221.96 983,-1215.96 989,-1209.96 995,-1209.96"/>
<text text-anchor="middle" x="1041" y="-1386.56" font-family="DejaVu Sans Bold" font-size="13.00" fill="#7f7f7f">.{1.&lt;&#45;2.await</text>
</g>
<g id="clust3" class="cluster">
<title>cluster1_.{2.switch</title>
</g>
<g id="clust4" class="cluster">
<title>cluster_.{2.switch</title>
<path fill="#d9d9d9" stroke="#bfbfbf" d="M26,-150C26,-150 98,-150 98,-150 104,-150 110,-156 110,-162 110,-162 110,-1080.96 110,-1080.96 110,-1086.96 104,-1092.96 98,-1092.96 98,-1092.96 26,-1092.96 26,-1092.96 20,-1092.96 14,-1086.96 14,-1080.96 14,-1080.96 14,-162 14,-162 14,-156 20,-150 26,-150"/>
<text text-anchor="middle" x="60" y="-1078.56" font-family="DejaVu Sans Bold" font-size="13.00" fill="#7f7f7f">.{2.switch</text>
</g>
<g id="clust5" class="cluster">
<title>cluster1_.{2.switch3.tryCatch</title>
</g>
<g id="clust6" class="cluster">
<title>cluster_.{2.switch3.tryCatch</title>
<path fill="#d9d9d9" stroke="#bfbfbf" d="M454,-266C454,-266 616,-266 616,-266 622,-266 628,-272 628,-278 628,-278 628,-503 628,-503 628,-509 622,-515 616,-515 616,-515 454,-515 454,-515 448,-515 442,-509 442,-503 442,-503 442,-278 442,-278 442,-272 448,-266 454,-266"/>
<text text-anchor="middle" x="526" y="-500.6" font-family="DejaVu Sans Bold" font-size="13.00" fill="#7f7f7f">.{2.switch3.tryCatch</text>
</g>
<g id="clust7" class="cluster">
<title>cluster1_.{2.switch4.{1.if1.!.await</title>
</g>
<g id="clust8" class="cluster">
<title>cluster_.{2.switch4.{1.if1.!.await</title>
<path fill="#d9d9d9" stroke="#bfbfbf" d="M771,-767.96C771,-767.96 953,-767.96 953,-767.96 959,-767.96 965,-773.96 965,-779.96 965,-779.96 965,-946.96 965,-946.96 965,-952.96 959,-958.96 953,-958.96 953,-958.96 771,-958.96 771,-958.96 765,-958.96 759,-952.96 759,-946.96 759,-946.96 759,-779.96 759,-779.96 759,-773.96 765,-767.96 771,-767.96"/>
<text text-anchor="middle" x="862" y="-944.56" font-family="DejaVu Sans Bold" font-size="13.00" fill="#7f7f7f">.{2.switch4.{1.if1.!.await</text>
</g>
<g id="clust9" class="cluster">
<title>cluster1_.{2.switch4.{2.tryCatch</title>
</g>
<g id="clust10" class="cluster">
<title>cluster_.{2.switch4.{2.tryCatch</title>
<path fill="#d9d9d9" stroke="#bfbfbf" d="M1032,-266C1032,-266 1199,-266 1199,-266 1205,-266 1211,-272 1211,-278 1211,-278 1211,-503 1211,-503 1211,-509 1205,-515 1199,-515 1199,-515 1032,-515 1032,-515 1026,-515 1020,-509 1020,-503 1020,-503 1020,-278 1020,-278 1020,-272 1026,-266 1032,-266"/>
<text text-anchor="middle" x="1115.5" y="-500.6" font-family="DejaVu Sans Bold" font-size="13.00" fill="#7f7f7f">.{2.switch4.{2.tryCatch</text>
</g>
<g id="clust11" class="cluster">
<title>cluster1_.{2.switch5.{1.&lt;&#45;2.await</title>
</g>
<g id="clust12" class="cluster">
<title>cluster_.{2.switch5.{1.&lt;&#45;2.await</title>
<path fill="#d9d9d9" stroke="#bfbfbf" d="M313,-767.96C313,-767.96 489,-767.96 489,-767.96 495,-767.96 501,-773.96 501,-779.96 501,-779.96 501,-946.96 501,-946.96 501,-952.96 495,-958.96 489,-958.96 489,-958.96 313,-958.96 313,-958.96 307,-958.96 301,-952.96 301,-946.96 301,-946.96 301,-779.96 301,-779.96 301,-773.96 307,-767.96 313,-767.96"/>
<text text-anchor="middle" x="401" y="-944.56" font-family="DejaVu Sans Bold" font-size="13.00" fill="#7f7f7f">.{2.switch5.{1.&lt;&#45;2.await</text>
</g>
<g id="clust13" class="cluster">
<title>cluster1_.{2.switch5.{2.on.exit</title>
</g>
<g id="clust14" class="cluster">
<title>cluster_.{2.switch5.{2.on.exit</title>
<path fill="#d9d9d9" stroke="#bfbfbf" d="M192,-440C192,-440 348,-440 348,-440 354,-440 360,-446 360,-452 360,-452 360,-637 360,-637 360,-643 354,-649 348,-649 348,-649 192,-649 192,-649 186,-649 180,-643 180,-637 180,-637 180,-452 180,-452 180,-446 186,-440 192,-440"/>
<text text-anchor="middle" x="270" y="-634.6" font-family="DejaVu Sans Bold" font-size="13.00" fill="#7f7f7f">.{2.switch5.{2.on.exit</text>
</g>
<g id="clust15" class="cluster">
<title>cluster1_async</title>
</g>
<g id="clust16" class="cluster">
<title>cluster_async</title>
<path fill="#d9d9d9" stroke="#bfbfbf" d="M1509,-1151.96C1509,-1151.96 1659,-1151.96 1659,-1151.96 1665,-1151.96 1671,-1157.96 1671,-1163.96 1671,-1163.96 1671,-1466.18 1671,-1466.18 1671,-1472.18 1665,-1478.18 1659,-1478.18 1659,-1478.18 1509,-1478.18 1509,-1478.18 1503,-1478.18 1497,-1472.18 1497,-1466.18 1497,-1466.18 1497,-1163.96 1497,-1163.96 1497,-1157.96 1503,-1151.96 1509,-1151.96"/>
<text text-anchor="middle" x="1526" y="-1463.78" font-family="DejaVu Sans Bold" font-size="13.00" fill="#7f7f7f">async</text>
</g>
<g id="clust17" class="cluster">
<title>cluster1_pump</title>
</g>
<g id="clust18" class="cluster">
<title>cluster_pump</title>
<path fill="#d9d9d9" stroke="#bfbfbf" d="M1235,-92C1235,-92 1473,-92 1473,-92 1479,-92 1485,-98 1485,-104 1485,-104 1485,-1466.18 1485,-1466.18 1485,-1472.18 1479,-1478.18 1473,-1478.18 1473,-1478.18 1235,-1478.18 1235,-1478.18 1229,-1478.18 1223,-1472.18 1223,-1466.18 1223,-1466.18 1223,-104 1223,-104 1223,-98 1229,-92 1235,-92"/>
<text text-anchor="middle" x="1251.5" y="-1463.78" font-family="DejaVu Sans Bold" font-size="13.00" fill="#7f7f7f">pump</text>
</g>
<!-- .{1;__; -->
<g id="node1" class="node">
<title>.{1;__;</title>
<ellipse fill="#b3b3b3" stroke="#b3b3b3" stroke-width="2" cx="742" cy="-1178.46" rx="9" ry="9"/>
<text text-anchor="middle" x="742" y="-1174.76" font-family="DejaVu Sans Bold" font-size="14.00">;</text>
</g>
<!-- .{2.switch1.R__eval_ -->
<g id="node9" class="node">
<title>.{2.switch1.R__eval_</title>
<polygon fill="#333333" stroke="#333333" stroke-width="2" points="747,-1134.96 567,-1134.96 567,-1106.96 747,-1106.96 747,-1134.96"/>
<text text-anchor="middle" x="657" y="-1117.56" font-family="DejaVu Sans Mono Bold" font-size="13.00" fill="lightgreen">getExtension(filename)</text>
</g>
<!-- .{1;__;&#45;&gt;.{2.switch1.R__eval_ -->
<g id="edge1" class="edge">
<title>.{1;__;&#45;&gt;.{2.switch1.R__eval_</title>
<path fill="none" stroke="#7f7f7f" stroke-width="2" d="M734.75,-1172.73C723.33,-1165.27 700.59,-1150.42 682.63,-1138.7"/>
<polygon fill="#7f7f7f" stroke="#7f7f7f" stroke-width="2" points="683.41,-1136.7 677.23,-1135.17 681.11,-1140.21 683.41,-1136.7"/>
</g>
<!-- .{1.&lt;&#45;__store -->
<g id="node2" class="node">
<title>.{1.&lt;&#45;__store</title>
<path fill="#b3b3b3" stroke="#b3b3b3" stroke-width="2" d="M929.33,-1250.96C929.33,-1250.96 892.67,-1250.96 892.67,-1250.96 887.83,-1250.96 883,-1246.13 883,-1241.29 883,-1241.29 883,-1231.63 883,-1231.63 883,-1226.79 887.83,-1221.96 892.67,-1221.96 892.67,-1221.96 929.33,-1221.96 929.33,-1221.96 934.17,-1221.96 939,-1226.79 939,-1231.63 939,-1231.63 939,-1241.29 939,-1241.29 939,-1246.13 934.17,-1250.96 929.33,-1250.96"/>
<text text-anchor="middle" x="911" y="-1232.76" font-family="DejaVu Sans Bold" font-size="14.00">store</text>
</g>
<!-- .{1.&lt;&#45;__store&#45;&gt;.{1;__; -->
<g id="edge2" class="edge">
<title>.{1.&lt;&#45;__store&#45;&gt;.{1;__;</title>
<path fill="none" stroke="black" stroke-width="2.5" d="M882.71,-1226.09C846.2,-1213.99 784.05,-1193.39 756.22,-1184.17"/>
<polygon fill="black" stroke="black" stroke-width="2.5" points="756.87,-1182.18 750.52,-1182.28 755.55,-1186.16 756.87,-1182.18"/>
</g>
<!-- .{1.&lt;&#45;2.await__await_ -->
<g id="node3" class="node">
<title>.{1.&lt;&#45;2.await__await_</title>
<path fill="#b3b3b3" stroke="#b3b3b3" stroke-width="2" d="M1063.83,-1366.96C1063.83,-1366.96 1018.17,-1366.96 1018.17,-1366.96 1013.33,-1366.96 1008.5,-1362.13 1008.5,-1357.29 1008.5,-1357.29 1008.5,-1347.63 1008.5,-1347.63 1008.5,-1342.79 1013.33,-1337.96 1018.17,-1337.96 1018.17,-1337.96 1063.83,-1337.96 1063.83,-1337.96 1068.67,-1337.96 1073.5,-1342.79 1073.5,-1347.63 1073.5,-1347.63 1073.5,-1357.29 1073.5,-1357.29 1073.5,-1362.13 1068.67,-1366.96 1063.83,-1366.96"/>
<text text-anchor="middle" x="1041" y="-1348.76" font-family="DejaVu Sans Bold" font-size="14.00">await_</text>
</g>
<!-- .{1.&lt;&#45;2.await__then -->
<g id="node5" class="node">
<title>.{1.&lt;&#45;2.await__then</title>
<path fill="#b3b3b3" stroke="#b3b3b3" stroke-width="2" d="M1056.83,-1308.96C1056.83,-1308.96 1025.17,-1308.96 1025.17,-1308.96 1020.33,-1308.96 1015.5,-1304.13 1015.5,-1299.29 1015.5,-1299.29 1015.5,-1289.63 1015.5,-1289.63 1015.5,-1284.79 1020.33,-1279.96 1025.17,-1279.96 1025.17,-1279.96 1056.83,-1279.96 1056.83,-1279.96 1061.67,-1279.96 1066.5,-1284.79 1066.5,-1289.63 1066.5,-1289.63 1066.5,-1299.29 1066.5,-1299.29 1066.5,-1304.13 1061.67,-1308.96 1056.83,-1308.96"/>
<text text-anchor="middle" x="1041" y="-1290.76" font-family="DejaVu Sans Bold" font-size="14.00">then</text>
</g>
<!-- .{1.&lt;&#45;2.await__await_&#45;&gt;.{1.&lt;&#45;2.await__then -->
<g id="edge3" class="edge">
<title>.{1.&lt;&#45;2.await__await_&#45;&gt;.{1.&lt;&#45;2.await__then</title>
<path fill="none" stroke="#7f7f7f" stroke-width="2.5" stroke-dasharray="5,2" d="M1041,-1337.9C1041,-1331.13 1041,-1322.8 1041,-1315.31"/>
<polygon fill="#7f7f7f" stroke="#7f7f7f" stroke-width="2.5" points="1043.1,-1315.28 1041,-1309.28 1038.9,-1315.28 1043.1,-1315.28"/>
</g>
<!-- .{1.&lt;&#45;2.await__error -->
<g id="node4" class="node">
<title>.{1.&lt;&#45;2.await__error</title>
<path fill="#b3b3b3" stroke="#b3b3b3" stroke-width="2" d="M1067.33,-1250.96C1067.33,-1250.96 1032.67,-1250.96 1032.67,-1250.96 1027.83,-1250.96 1023,-1246.13 1023,-1241.29 1023,-1241.29 1023,-1231.63 1023,-1231.63 1023,-1226.79 1027.83,-1221.96 1032.67,-1221.96 1032.67,-1221.96 1067.33,-1221.96 1067.33,-1221.96 1072.17,-1221.96 1077,-1226.79 1077,-1231.63 1077,-1231.63 1077,-1241.29 1077,-1241.29 1077,-1246.13 1072.17,-1250.96 1067.33,-1250.96"/>
<text text-anchor="middle" x="1050" y="-1232.76" font-family="DejaVu Sans Bold" font-size="14.00">error</text>
</g>
<!-- stop_ -->
<g id="node64" class="node">
<title>stop_</title>
<polygon fill="darkred" stroke="darkred" stroke-width="2" points="1303.28,-730.73 1303.28,-740.23 1284.37,-746.95 1257.63,-746.95 1238.72,-740.23 1238.72,-730.73 1257.63,-724.01 1284.37,-724.01 1303.28,-730.73"/>
<polygon fill="none" stroke="darkred" stroke-width="2" points="1307.29,-727.92 1307.29,-743.05 1285.06,-750.94 1256.94,-750.94 1234.71,-743.05 1234.71,-727.92 1256.94,-720.02 1285.06,-720.02 1307.29,-727.92"/>
<text text-anchor="middle" x="1271" y="-731.78" font-family="DejaVu Sans Bold" font-size="14.00" fill="pink">stop_</text>
</g>
<!-- .{1.&lt;&#45;2.await__error&#45;&gt;stop_ -->
<g id="edge4" class="edge">
<title>.{1.&lt;&#45;2.await__error&#45;&gt;stop_</title>
<path fill="none" stroke="black" stroke-width="2" d="M1056.27,-1221.81C1065.33,-1200.82 1081,-1159.14 1081,-1121.96 1081,-1121.96 1081,-1121.96 1081,-985.96 1081,-878.32 1194.33,-788.14 1245.93,-752.65"/>
<polygon fill="black" stroke="black" stroke-width="2" points="1247.24,-754.3 1251.03,-749.19 1244.88,-750.83 1247.24,-754.3"/>
</g>
<!-- .{1.&lt;&#45;2.await__then&#45;&gt;.{1.&lt;&#45;__store -->
<g id="edge5" class="edge">
<title>.{1.&lt;&#45;2.await__then&#45;&gt;.{1.&lt;&#45;__store</title>
<path fill="none" stroke="black" stroke-width="2" d="M1015.32,-1282.4C995.21,-1273.74 967.06,-1261.61 945.08,-1252.14"/>
<polygon fill="black" stroke="black" stroke-width="2" points="945.68,-1250.11 939.34,-1249.67 944.02,-1253.97 945.68,-1250.11"/>
</g>
<!-- .{1.&lt;&#45;2.await__then&#45;&gt;.{1.&lt;&#45;2.await__error -->
<g id="edge6" class="edge">
<title>.{1.&lt;&#45;2.await__then&#45;&gt;.{1.&lt;&#45;2.await__error</title>
<path fill="none" stroke="#7f7f7f" stroke-width="2" d="M1043.18,-1279.9C1044.27,-1273.13 1045.61,-1264.8 1046.81,-1257.31"/>
<polygon fill="#7f7f7f" stroke="#7f7f7f" stroke-width="2" points="1048.9,-1257.54 1047.78,-1251.28 1044.75,-1256.87 1048.9,-1257.54"/>
</g>
<!-- entry -->
<g id="node6" class="node">
<title>entry</title>
<polygon fill="darkgreen" stroke="darkgreen" stroke-width="2" points="1145.18,-1425.17 1145.18,-1434.18 1084.15,-1440.55 997.85,-1440.55 936.82,-1434.18 936.82,-1425.17 997.85,-1418.8 1084.15,-1418.8 1145.18,-1425.17"/>
<polygon fill="none" stroke="darkgreen" stroke-width="2" points="1149.18,-1421.51 1149.18,-1437.84 1084.36,-1444.61 997.64,-1444.61 932.82,-1437.84 932.82,-1421.51 997.64,-1414.74 1084.36,-1414.74 1149.18,-1421.51"/>
<text text-anchor="middle" x="1041" y="-1426.28" font-family="DejaVu Sans Mono Bold" font-size="13.00" fill="lightgreen">download_file(url)</text>
</g>
<!-- entry&#45;&gt;.{1.&lt;&#45;2.await__await_ -->
<g id="edge65" class="edge">
<title>entry&#45;&gt;.{1.&lt;&#45;2.await__await_</title>
<path fill="none" stroke="black" stroke-width="2.5" d="M1041,-1414.88C1041,-1403.22 1041,-1386.36 1041,-1373.26"/>
<polygon fill="black" stroke="black" stroke-width="2.5" points="1043.1,-1373.17 1041,-1367.17 1038.9,-1373.17 1043.1,-1373.17"/>
</g>
<!-- .{2.switch__goto_ -->
<g id="node7" class="node">
<title>.{2.switch__goto_</title>
<path fill="#b3b3b3" stroke="#b3b3b3" stroke-width="2" d="M87.83,-191C87.83,-191 50.17,-191 50.17,-191 45.33,-191 40.5,-186.17 40.5,-181.33 40.5,-181.33 40.5,-171.67 40.5,-171.67 40.5,-166.83 45.33,-162 50.17,-162 50.17,-162 87.83,-162 87.83,-162 92.67,-162 97.5,-166.83 97.5,-171.67 97.5,-171.67 97.5,-181.33 97.5,-181.33 97.5,-186.17 92.67,-191 87.83,-191"/>
<text text-anchor="middle" x="69" y="-172.8" font-family="DejaVu Sans Bold" font-size="14.00">goto_</text>
</g>
<!-- .{2.switch__switch_ -->
<g id="node8" class="node">
<title>.{2.switch__switch_</title>
<path fill="#b3b3b3" stroke="#b3b3b3" stroke-width="2" d="M88.33,-1058.96C88.33,-1058.96 35.67,-1058.96 35.67,-1058.96 30.83,-1058.96 26,-1054.13 26,-1049.29 26,-1049.29 26,-1039.63 26,-1039.63 26,-1034.79 30.83,-1029.96 35.67,-1029.96 35.67,-1029.96 88.33,-1029.96 88.33,-1029.96 93.17,-1029.96 98,-1034.79 98,-1039.63 98,-1039.63 98,-1049.29 98,-1049.29 98,-1054.13 93.17,-1058.96 88.33,-1058.96"/>
<text text-anchor="middle" x="62" y="-1040.76" font-family="DejaVu Sans Bold" font-size="14.00">switch_</text>
</g>
<!-- .{2.switch__goto_&#45;&gt;.{2.switch__switch_ -->
<g id="edge8" class="edge">
<title>.{2.switch__goto_&#45;&gt;.{2.switch__switch_</title>
<path fill="none" stroke="black" stroke-width="2.5" stroke-dasharray="5,2" d="M68.41,-191.18C67.53,-212.58 66,-255.27 66,-291.5 66,-911.46 66,-911.46 66,-911.46 66,-951.2 64.17,-997.63 62.98,-1023.48"/>
<polygon fill="black" stroke="black" stroke-width="2.5" points="60.88,-1023.5 62.7,-1029.59 65.07,-1023.7 60.88,-1023.5"/>
</g>
<!-- .{2.switch__goto_&#45;&gt;.{2.switch1.R__eval_ -->
<g id="edge7" class="edge">
<title>.{2.switch__goto_&#45;&gt;.{2.switch1.R__eval_</title>
<path fill="none" stroke="#7f7f7f" stroke-width="2.5" stroke-dasharray="5,2" d="M97.87,-177.17C226.77,-175.94 745.75,-173.9 800,-220 824.81,-241.09 816,-258.94 816,-291.5 816,-351.5 816,-351.5 816,-351.5 816,-384.06 809.74,-391.93 800,-423 785.93,-467.89 779.12,-478.02 760,-521 717.19,-617.25 657,-629.13 657,-734.48 657,-987.96 657,-987.96 657,-987.96 657,-1028.1 657,-1075.11 657,-1100.79"/>
<polygon fill="#7f7f7f" stroke="#7f7f7f" stroke-width="2.5" points="654.9,-1100.85 657,-1106.85 659.1,-1100.85 654.9,-1100.85"/>
</g>
<!-- .{2.switch2.R__eval_ -->
<g id="node10" class="node">
<title>.{2.switch2.R__eval_</title>
<polygon fill="#333333" stroke="#333333" stroke-width="2" points="1211,-866.46 1069,-866.46 1069,-838.46 1211,-838.46 1211,-866.46"/>
<text text-anchor="middle" x="1140" y="-849.06" font-family="DejaVu Sans Mono Bold" font-size="13.00" fill="lightgreen">readTxt(filename)</text>
</g>
<!-- .{2.switch__switch_&#45;&gt;.{2.switch2.R__eval_ -->
<g id="edge9" class="edge">
<title>.{2.switch__switch_&#45;&gt;.{2.switch2.R__eval_</title>
<path fill="none" stroke="#7f7f7f" stroke-width="2" d="M98.11,-1043.59C262.48,-1043.93 935.53,-1042.74 1019,-1000.96 1075.04,-972.91 1114.35,-905.74 1131.04,-872.61"/>
<polygon fill="#7f7f7f" stroke="#7f7f7f" stroke-width="2" points="1133.11,-873.14 1133.89,-866.83 1129.35,-871.28 1133.11,-873.14"/>
</g>
<!-- .{2.switch3.tryCatch__try_ -->
<g id="node15" class="node">
<title>.{2.switch3.tryCatch__try_</title>
<path fill="#b3b3b3" stroke="#b3b3b3" stroke-width="2" d="M514.33,-481C514.33,-481 489.67,-481 489.67,-481 484.83,-481 480,-476.17 480,-471.33 480,-471.33 480,-461.67 480,-461.67 480,-456.83 484.83,-452 489.67,-452 489.67,-452 514.33,-452 514.33,-452 519.17,-452 524,-456.83 524,-461.67 524,-461.67 524,-471.33 524,-471.33 524,-476.17 519.17,-481 514.33,-481"/>
<text text-anchor="middle" x="502" y="-462.8" font-family="DejaVu Sans Bold" font-size="14.00">try_</text>
</g>
<!-- .{2.switch__switch_&#45;&gt;.{2.switch3.tryCatch__try_ -->
<g id="edge10" class="edge">
<title>.{2.switch__switch_&#45;&gt;.{2.switch3.tryCatch__try_</title>
<path fill="none" stroke="#7f7f7f" stroke-width="2" d="M98.15,-1040.38C125.54,-1036.06 161.94,-1025.72 183,-1000.96 209.18,-970.18 199,-951.87 199,-911.46 199,-911.46 199,-911.46 199,-851.46 199,-736.28 294.3,-743.51 368,-655 416.95,-596.22 435.02,-585.59 476,-521 482.91,-510.11 489.26,-497.12 493.96,-486.66"/>
<polygon fill="#7f7f7f" stroke="#7f7f7f" stroke-width="2" points="495.9,-487.48 496.39,-481.14 492.05,-485.78 495.9,-487.48"/>
</g>
<!-- .{2.switch4.{1.if1.!.await.R__eval_ -->
<g id="node24" class="node">
<title>.{2.switch4.{1.if1.!.await.R__eval_</title>
<polygon fill="#333333" stroke="#333333" stroke-width="2" points="622.5,-1000.96 427.5,-1000.96 427.5,-972.96 622.5,-972.96 622.5,-1000.96"/>
<text text-anchor="middle" x="525" y="-983.56" font-family="DejaVu Sans Mono Bold" font-size="13.00" fill="lightgreen">validateSchema(filename)</text>
</g>
<!-- .{2.switch__switch_&#45;&gt;.{2.switch4.{1.if1.!.await.R__eval_ -->
<g id="edge11" class="edge">
<title>.{2.switch__switch_&#45;&gt;.{2.switch4.{1.if1.!.await.R__eval_</title>
<path fill="none" stroke="#7f7f7f" stroke-width="2" d="M98.24,-1039.34C162.36,-1032.02 300.15,-1016.16 421.32,-1001.29"/>
<polygon fill="#7f7f7f" stroke="#7f7f7f" stroke-width="2" points="421.74,-1003.35 427.44,-1000.54 421.23,-999.18 421.74,-1003.35"/>
</g>
<!-- .{2.switch5.{1.&lt;&#45;2.await.R__eval_ -->
<g id="node43" class="node">
<title>.{2.switch5.{1.&lt;&#45;2.await.R__eval_</title>
<polygon fill="#333333" stroke="#333333" stroke-width="2" points="405,-1000.96 233,-1000.96 233,-972.96 405,-972.96 405,-1000.96"/>
<text text-anchor="middle" x="319" y="-983.56" font-family="DejaVu Sans Mono Bold" font-size="13.00" fill="lightgreen">unzip_async(filename)</text>
</g>
<!-- .{2.switch__switch_&#45;&gt;.{2.switch5.{1.&lt;&#45;2.await.R__eval_ -->
<g id="edge12" class="edge">
<title>.{2.switch__switch_&#45;&gt;.{2.switch5.{1.&lt;&#45;2.await.R__eval_</title>
<path fill="none" stroke="#7f7f7f" stroke-width="2" d="M98.01,-1035.69C137.96,-1027.06 203.3,-1012.95 252.59,-1002.3"/>
<polygon fill="#7f7f7f" stroke="#7f7f7f" stroke-width="2" points="253.1,-1004.34 258.52,-1001.02 252.22,-1000.24 253.1,-1004.34"/>
</g>
<!-- .{2.switch__switch_&#45;&gt;stop_ -->
<g id="edge13" class="edge">
<title>.{2.switch__switch_&#45;&gt;stop_</title>
<path fill="none" stroke="black" stroke-width="2" d="M98.19,-1043.02C263.43,-1040.87 939.58,-1030.28 973,-1000.96 1003.37,-974.31 989,-951.87 989,-911.46 989,-911.46 989,-911.46 989,-851.46 989,-844.79 1164.28,-777.17 1238.46,-748.85"/>
<polygon fill="black" stroke="black" stroke-width="2" points="1239.61,-750.66 1244.47,-746.56 1238.12,-746.74 1239.61,-750.66"/>
</g>
<!-- .{2.switch1.R__eval_&#45;&gt;.{2.switch__switch_ -->
<g id="edge14" class="edge">
<title>.{2.switch1.R__eval_&#45;&gt;.{2.switch__switch_</title>
<path fill="none" stroke="black" stroke-width="2.5" d="M566.96,-1108.69C436.62,-1092.37 200.5,-1062.8 104.4,-1050.77"/>
<polygon fill="black" stroke="black" stroke-width="2.5" points="104.49,-1048.67 98.28,-1050 103.97,-1052.83 104.49,-1048.67"/>
</g>
<!-- return_ -->
<g id="node62" class="node">
<title>return_</title>
<path fill="#b3b3b3" stroke="#b3b3b3" stroke-width="2" d="M1438.83,-249C1438.83,-249 1387.17,-249 1387.17,-249 1382.33,-249 1377.5,-244.17 1377.5,-239.33 1377.5,-239.33 1377.5,-229.67 1377.5,-229.67 1377.5,-224.83 1382.33,-220 1387.17,-220 1387.17,-220 1438.83,-220 1438.83,-220 1443.67,-220 1448.5,-224.83 1448.5,-229.67 1448.5,-229.67 1448.5,-239.33 1448.5,-239.33 1448.5,-244.17 1443.67,-249 1438.83,-249"/>
<text text-anchor="middle" x="1413" y="-230.8" font-family="DejaVu Sans Bold" font-size="14.00">return_</text>
</g>
<!-- .{2.switch2.R__eval_&#45;&gt;return_ -->
<g id="edge15" class="edge">
<title>.{2.switch2.R__eval_&#45;&gt;return_</title>
<path fill="none" stroke="black" stroke-width="2.5" d="M1211.2,-843.81C1317.92,-830.34 1507,-797.82 1507,-736.48 1507,-736.48 1507,-736.48 1507,-349.5 1507,-309.09 1517.7,-290.33 1491,-260 1481.73,-249.47 1467.99,-243.41 1454.61,-239.95"/>
<polygon fill="black" stroke="black" stroke-width="2.5" points="1454.82,-237.85 1448.51,-238.54 1453.88,-241.94 1454.82,-237.85"/>
</g>
<!-- .{2.switch3.tryCatch__continue -->
<g id="node11" class="node">
<title>.{2.switch3.tryCatch__continue</title>
<path fill="#b3b3b3" stroke="#b3b3b3" stroke-width="2" d="M605.83,-365C605.83,-365 542.17,-365 542.17,-365 537.33,-365 532.5,-360.17 532.5,-355.33 532.5,-355.33 532.5,-345.67 532.5,-345.67 532.5,-340.83 537.33,-336 542.17,-336 542.17,-336 605.83,-336 605.83,-336 610.67,-336 615.5,-340.83 615.5,-345.67 615.5,-345.67 615.5,-355.33 615.5,-355.33 615.5,-360.17 610.67,-365 605.83,-365"/>
<text text-anchor="middle" x="574" y="-346.8" font-family="DejaVu Sans Bold" font-size="14.00">continue</text>
</g>
<!-- .{2.switch3.tryCatch__do_continue -->
<g id="node12" class="node">
<title>.{2.switch3.tryCatch__do_continue</title>
<path fill="#b3b3b3" stroke="#b3b3b3" stroke-width="2" d="M605.83,-307C605.83,-307 516.17,-307 516.17,-307 511.33,-307 506.5,-302.17 506.5,-297.33 506.5,-297.33 506.5,-287.67 506.5,-287.67 506.5,-282.83 511.33,-278 516.17,-278 516.17,-278 605.83,-278 605.83,-278 610.67,-278 615.5,-282.83 615.5,-287.67 615.5,-287.67 615.5,-297.33 615.5,-297.33 615.5,-302.17 610.67,-307 605.83,-307"/>
<text text-anchor="middle" x="561" y="-288.8" font-family="DejaVu Sans Bold" font-size="14.00">do_continue</text>
</g>
<!-- .{2.switch3.tryCatch__continue&#45;&gt;.{2.switch3.tryCatch__do_continue -->
<g id="edge16" class="edge">
<title>.{2.switch3.tryCatch__continue&#45;&gt;.{2.switch3.tryCatch__do_continue</title>
<path fill="none" stroke="#7f7f7f" stroke-width="2.5" stroke-dasharray="5,2" d="M570.85,-335.94C570.07,-332.56 569.19,-328.78 568.29,-324.91"/>
<ellipse fill="none" stroke="#7f7f7f" stroke-width="2.5" cx="566.24" cy="-316.09" rx="9" ry="9"/>
<text text-anchor="middle" x="566.24" y="-311.09" font-family="DejaVu Sans Bold" font-size="20.00" fill="blue">⤼</text>
<text text-anchor="middle" x="568.82" y="-322.18" font-family="DejaVu Sans Bold" font-size="20.00" fill="blue"> </text>
</g>
<!-- .{2.switch3.tryCatch__do_continue&#45;&gt;return_ -->
<g id="edge17" class="edge">
<title>.{2.switch3.tryCatch__do_continue&#45;&gt;return_</title>
<path fill="none" stroke="black" stroke-width="2" d="M615.51,-285.62C685.63,-278.3 811.23,-266.04 919,-260 1018.01,-254.45 1264.59,-266.49 1371.21,-249.37"/>
<polygon fill="black" stroke="black" stroke-width="2" points="1371.85,-251.39 1377.41,-248.31 1371.14,-247.25 1371.85,-251.39"/>
</g>
<!-- .{2.switch3.tryCatch__do_windup -->
<g id="node13" class="node">
<title>.{2.switch3.tryCatch__do_windup</title>
<path fill="#b3b3b3" stroke="#b3b3b3" stroke-width="2" d="M540.83,-423C540.83,-423 463.17,-423 463.17,-423 458.33,-423 453.5,-418.17 453.5,-413.33 453.5,-413.33 453.5,-403.67 453.5,-403.67 453.5,-398.83 458.33,-394 463.17,-394 463.17,-394 540.83,-394 540.83,-394 545.67,-394 550.5,-398.83 550.5,-403.67 550.5,-403.67 550.5,-413.33 550.5,-413.33 550.5,-418.17 545.67,-423 540.83,-423"/>
<text text-anchor="middle" x="502" y="-404.8" font-family="DejaVu Sans Bold" font-size="14.00">do_windup</text>
</g>
<!-- .{2.switch3.tryCatch__stop_ -->
<g id="node14" class="node">
<title>.{2.switch3.tryCatch__stop_</title>
<path fill="#b3b3b3" stroke="#b3b3b3" stroke-width="2" d="M500.33,-365C500.33,-365 463.67,-365 463.67,-365 458.83,-365 454,-360.17 454,-355.33 454,-355.33 454,-345.67 454,-345.67 454,-340.83 458.83,-336 463.67,-336 463.67,-336 500.33,-336 500.33,-336 505.17,-336 510,-340.83 510,-345.67 510,-345.67 510,-355.33 510,-355.33 510,-360.17 505.17,-365 500.33,-365"/>
<text text-anchor="middle" x="482" y="-346.8" font-family="DejaVu Sans Bold" font-size="14.00">stop_</text>
</g>
<!-- .{2.switch3.tryCatch__do_windup&#45;&gt;.{2.switch3.tryCatch__stop_ -->
<g id="edge18" class="edge">
<title>.{2.switch3.tryCatch__do_windup&#45;&gt;.{2.switch3.tryCatch__stop_</title>
<path fill="none" stroke="black" stroke-width="2" d="M497.16,-393.94C494.74,-387.17 491.76,-378.83 489.09,-371.35"/>
<polygon fill="black" stroke="black" stroke-width="2" points="490.93,-370.26 486.94,-365.32 486.98,-371.68 490.93,-370.26"/>
</g>
<!-- .{2.switch3.tryCatch2.goto.R__eval_ -->
<g id="node18" class="node">
<title>.{2.switch3.tryCatch2.goto.R__eval_</title>
<polygon fill="#333333" stroke="#333333" stroke-width="2" points="428,-306.5 376,-306.5 376,-278.5 428,-278.5 428,-306.5"/>
<text text-anchor="middle" x="402" y="-289.1" font-family="DejaVu Sans Mono Bold" font-size="13.00" fill="lightgreen">&quot;txt&quot;</text>
</g>
<!-- .{2.switch3.tryCatch__stop_&#45;&gt;.{2.switch3.tryCatch2.goto.R__eval_ -->
<g id="edge19" class="edge">
<title>.{2.switch3.tryCatch__stop_&#45;&gt;.{2.switch3.tryCatch2.goto.R__eval_</title>
<path fill="none" stroke="#7f7f7f" stroke-width="2.5" stroke-dasharray="5,2" d="M462.63,-335.94C454.46,-330.22 444.7,-323.39 435.42,-316.9"/>
<ellipse fill="none" stroke="#7f7f7f" stroke-width="2.5" cx="428.01" cy="-311.71" rx="9" ry="9"/>
<text text-anchor="middle" x="428.01" y="-306.71" font-family="DejaVu Sans Bold" font-size="20.00" fill="blue">⤼</text>
<text text-anchor="middle" x="455.26" y="-325.78" font-family="DejaVu Sans Bold" font-size="20.00" fill="blue"> </text>
</g>
<!-- .{2.switch3.tryCatch__try_&#45;&gt;.{2.switch3.tryCatch__do_windup -->
<g id="edge21" class="edge">
<title>.{2.switch3.tryCatch__try_&#45;&gt;.{2.switch3.tryCatch__do_windup</title>
<path fill="none" stroke="#7f7f7f" stroke-width="0.75" d="M502,-451.94C502,-444.08 502,-434.13 502,-425.84"/>
<ellipse fill="#7f7f7f" stroke="#7f7f7f" stroke-width="0.75" cx="502" cy="-424.52" rx="1.2" ry="1.2"/>
</g>
<!-- .{2.switch3.tryCatch1.R__eval_ -->
<g id="node16" class="node">
<title>.{2.switch3.tryCatch1.R__eval_</title>
<polygon fill="#333333" stroke="#333333" stroke-width="2" points="782,-422.5 640,-422.5 640,-394.5 782,-394.5 782,-422.5"/>
<text text-anchor="middle" x="711" y="-405.1" font-family="DejaVu Sans Mono Bold" font-size="13.00" fill="lightgreen">readCSV(filename)</text>
</g>
<!-- .{2.switch3.tryCatch__try_&#45;&gt;.{2.switch3.tryCatch1.R__eval_ -->
<g id="edge20" class="edge">
<title>.{2.switch3.tryCatch__try_&#45;&gt;.{2.switch3.tryCatch1.R__eval_</title>
<path fill="none" stroke="#7f7f7f" stroke-width="2.5" stroke-dasharray="5,2" d="M524.37,-459.51C552.89,-451.86 603.48,-438.31 644.8,-427.24"/>
<ellipse fill="none" stroke="#7f7f7f" stroke-width="2.5" cx="653.74" cy="-424.84" rx="9" ry="9"/>
<text text-anchor="middle" x="653.74" y="-419.84" font-family="DejaVu Sans Bold" font-size="20.00" fill="blue">⤽</text>
<text text-anchor="middle" x="533.06" y="-452.18" font-family="DejaVu Sans Bold" font-size="20.00" fill="blue"> </text>
</g>
<!-- .{2.switch3.tryCatch1.R__eval_&#45;&gt;.{2.switch3.tryCatch__continue -->
<g id="edge22" class="edge">
<title>.{2.switch3.tryCatch1.R__eval_&#45;&gt;.{2.switch3.tryCatch__continue</title>
<path fill="none" stroke="black" stroke-width="2.5" d="M678.88,-394.37C659.22,-386.33 633.92,-375.99 613.1,-367.48"/>
<polygon fill="black" stroke="black" stroke-width="2.5" points="613.7,-365.46 607.35,-365.13 612.11,-369.35 613.7,-365.46"/>
</g>
<!-- .{2.switch3.tryCatch2.goto__goto_ -->
<g id="node17" class="node">
<title>.{2.switch3.tryCatch2.goto__goto_</title>
<path fill="#b3b3b3" stroke="#b3b3b3" stroke-width="2" d="M420.83,-249C420.83,-249 383.17,-249 383.17,-249 378.33,-249 373.5,-244.17 373.5,-239.33 373.5,-239.33 373.5,-229.67 373.5,-229.67 373.5,-224.83 378.33,-220 383.17,-220 383.17,-220 420.83,-220 420.83,-220 425.67,-220 430.5,-224.83 430.5,-229.67 430.5,-229.67 430.5,-239.33 430.5,-239.33 430.5,-244.17 425.67,-249 420.83,-249"/>
<text text-anchor="middle" x="402" y="-230.8" font-family="DejaVu Sans Bold" font-size="14.00">goto_</text>
</g>
<!-- .{2.switch3.tryCatch2.goto__goto_&#45;&gt;.{2.switch__goto_ -->
<g id="edge23" class="edge">
<title>.{2.switch3.tryCatch2.goto__goto_&#45;&gt;.{2.switch__goto_</title>
<path fill="none" stroke="black" stroke-width="2" d="M373.16,-220.94C372.1,-220.6 371.05,-220.29 370,-220 275.96,-194 160.77,-183.39 104.02,-179.5"/>
<polygon fill="black" stroke="black" stroke-width="2" points="103.85,-177.38 97.72,-179.08 103.57,-181.57 103.85,-177.38"/>
</g>
<!-- .{2.switch3.tryCatch2.goto.R__eval_&#45;&gt;.{2.switch3.tryCatch2.goto__goto_ -->
<g id="edge24" class="edge">
<title>.{2.switch3.tryCatch2.goto.R__eval_&#45;&gt;.{2.switch3.tryCatch2.goto__goto_</title>
<path fill="none" stroke="black" stroke-width="2" d="M402,-278.23C402,-271.36 402,-262.83 402,-255.2"/>
<polygon fill="black" stroke="black" stroke-width="2" points="404.1,-255.06 402,-249.06 399.9,-255.07 404.1,-255.06"/>
</g>
<!-- .{2.switch4.{1;__; -->
<g id="node19" class="node">
<title>.{2.switch4.{1;__;</title>
<ellipse fill="#b3b3b3" stroke="#b3b3b3" stroke-width="2" cx="899" cy="-543" rx="9" ry="9"/>
<text text-anchor="middle" x="899" y="-539.3" font-family="DejaVu Sans Bold" font-size="14.00">;</text>
</g>
<!-- .{2.switch4.{2.tryCatch__try_ -->
<g id="node34" class="node">
<title>.{2.switch4.{2.tryCatch__try_</title>
<path fill="#b3b3b3" stroke="#b3b3b3" stroke-width="2" d="M1066.33,-481C1066.33,-481 1041.67,-481 1041.67,-481 1036.83,-481 1032,-476.17 1032,-471.33 1032,-471.33 1032,-461.67 1032,-461.67 1032,-456.83 1036.83,-452 1041.67,-452 1041.67,-452 1066.33,-452 1066.33,-452 1071.17,-452 1076,-456.83 1076,-461.67 1076,-461.67 1076,-471.33 1076,-471.33 1076,-476.17 1071.17,-481 1066.33,-481"/>
<text text-anchor="middle" x="1054" y="-462.8" font-family="DejaVu Sans Bold" font-size="14.00">try_</text>
</g>
<!-- .{2.switch4.{1;__;&#45;&gt;.{2.switch4.{2.tryCatch__try_ -->
<g id="edge25" class="edge">
<title>.{2.switch4.{1;__;&#45;&gt;.{2.switch4.{2.tryCatch__try_</title>
<path fill="none" stroke="#7f7f7f" stroke-width="2" d="M908.15,-541.59C934.33,-540.24 1008.89,-535.23 1028,-521 1039,-512.81 1045.59,-498.71 1049.38,-487.04"/>
<polygon fill="#7f7f7f" stroke="#7f7f7f" stroke-width="2" points="1051.42,-487.56 1051.11,-481.21 1047.39,-486.36 1051.42,-487.56"/>
</g>
<!-- .{2.switch4.{1.if__if_ -->
<g id="node20" class="node">
<title>.{2.switch4.{1.if__if_</title>
<path fill="#b3b3b3" stroke="#b3b3b3" stroke-width="2" d="M750.33,-615C750.33,-615 737.67,-615 737.67,-615 732.83,-615 728,-610.17 728,-605.33 728,-605.33 728,-595.67 728,-595.67 728,-590.83 732.83,-586 737.67,-586 737.67,-586 750.33,-586 750.33,-586 755.17,-586 760,-590.83 760,-595.67 760,-595.67 760,-605.33 760,-605.33 760,-610.17 755.17,-615 750.33,-615"/>
<text text-anchor="middle" x="744" y="-596.8" font-family="DejaVu Sans Bold" font-size="14.00">if_</text>
</g>
<!-- .{2.switch4.{1.if__if_&#45;&gt;.{2.switch4.{1;__; -->
<g id="edge26" class="edge">
<title>.{2.switch4.{1.if__if_&#45;&gt;.{2.switch4.{1;__;</title>
<path fill="none" stroke="black" stroke-width="2" d="M760.38,-597.28C787.96,-592.97 844.68,-581.66 886,-557 887.07,-556.36 888.11,-555.62 889.12,-554.81"/>
<polygon fill="black" stroke="black" stroke-width="2" points="890.77,-556.14 893.71,-550.51 887.89,-553.08 890.77,-556.14"/>
</g>
<!-- .{2.switch4.{1.if2.goto.R__eval_ -->
<g id="node29" class="node">
<title>.{2.switch4.{1.if2.goto.R__eval_</title>
<polygon fill="#333333" stroke="#333333" stroke-width="2" points="576,-557 524,-557 524,-529 576,-529 576,-557"/>
<text text-anchor="middle" x="550" y="-539.6" font-family="DejaVu Sans Mono Bold" font-size="13.00" fill="lightgreen">&quot;txt&quot;</text>
</g>
<!-- .{2.switch4.{1.if__if_&#45;&gt;.{2.switch4.{1.if2.goto.R__eval_ -->
<g id="edge27" class="edge">
<title>.{2.switch4.{1.if__if_&#45;&gt;.{2.switch4.{1.if2.goto.R__eval_</title>
<path fill="none" stroke="#7f7f7f" stroke-width="2" d="M727.68,-587.82C726.46,-587.16 725.23,-586.54 724,-586 676.96,-565.26 618.06,-553.79 582.26,-548.26"/>
<polygon fill="#7f7f7f" stroke="#7f7f7f" stroke-width="2" points="582.54,-546.18 576.29,-547.36 581.91,-550.33 582.54,-546.18"/>
</g>
<!-- .{2.switch4.{1.if1.!.await__await_ -->
<g id="node21" class="node">
<title>.{2.switch4.{1.if1.!.await__await_</title>
<path fill="#b3b3b3" stroke="#b3b3b3" stroke-width="2" d="M826.83,-924.96C826.83,-924.96 781.17,-924.96 781.17,-924.96 776.33,-924.96 771.5,-920.13 771.5,-915.29 771.5,-915.29 771.5,-905.63 771.5,-905.63 771.5,-900.79 776.33,-895.96 781.17,-895.96 781.17,-895.96 826.83,-895.96 826.83,-895.96 831.67,-895.96 836.5,-900.79 836.5,-905.63 836.5,-905.63 836.5,-915.29 836.5,-915.29 836.5,-920.13 831.67,-924.96 826.83,-924.96"/>
<text text-anchor="middle" x="804" y="-906.76" font-family="DejaVu Sans Bold" font-size="14.00">await_</text>
</g>
<!-- .{2.switch4.{1.if1.!.await__then -->
<g id="node23" class="node">
<title>.{2.switch4.{1.if1.!.await__then</title>
<path fill="#b3b3b3" stroke="#b3b3b3" stroke-width="2" d="M819.83,-866.96C819.83,-866.96 788.17,-866.96 788.17,-866.96 783.33,-866.96 778.5,-862.13 778.5,-857.29 778.5,-857.29 778.5,-847.63 778.5,-847.63 778.5,-842.79 783.33,-837.96 788.17,-837.96 788.17,-837.96 819.83,-837.96 819.83,-837.96 824.67,-837.96 829.5,-842.79 829.5,-847.63 829.5,-847.63 829.5,-857.29 829.5,-857.29 829.5,-862.13 824.67,-866.96 819.83,-866.96"/>
<text text-anchor="middle" x="804" y="-848.76" font-family="DejaVu Sans Bold" font-size="14.00">then</text>
</g>
<!-- .{2.switch4.{1.if1.!.await__await_&#45;&gt;.{2.switch4.{1.if1.!.await__then -->
<g id="edge28" class="edge">
<title>.{2.switch4.{1.if1.!.await__await_&#45;&gt;.{2.switch4.{1.if1.!.await__then</title>
<path fill="none" stroke="#7f7f7f" stroke-width="2.5" stroke-dasharray="5,2" d="M804,-895.9C804,-889.13 804,-880.8 804,-873.31"/>
<polygon fill="#7f7f7f" stroke="#7f7f7f" stroke-width="2.5" points="806.1,-873.28 804,-867.28 801.9,-873.28 806.1,-873.28"/>
</g>
<!-- .{2.switch4.{1.if1.!.await__error -->
<g id="node22" class="node">
<title>.{2.switch4.{1.if1.!.await__error</title>
<path fill="#b3b3b3" stroke="#b3b3b3" stroke-width="2" d="M882.33,-808.96C882.33,-808.96 847.67,-808.96 847.67,-808.96 842.83,-808.96 838,-804.13 838,-799.29 838,-799.29 838,-789.63 838,-789.63 838,-784.79 842.83,-779.96 847.67,-779.96 847.67,-779.96 882.33,-779.96 882.33,-779.96 887.17,-779.96 892,-784.79 892,-789.63 892,-789.63 892,-799.29 892,-799.29 892,-804.13 887.17,-808.96 882.33,-808.96"/>
<text text-anchor="middle" x="865" y="-790.76" font-family="DejaVu Sans Bold" font-size="14.00">error</text>
</g>
<!-- .{2.switch4.{1.if1.!.await__error&#45;&gt;stop_ -->
<g id="edge29" class="edge">
<title>.{2.switch4.{1.if1.!.await__error&#45;&gt;stop_</title>
<path fill="none" stroke="black" stroke-width="2" d="M892.15,-786.57C922.58,-779.16 973.48,-767.66 1018,-761.96 1112.03,-749.92 1138.09,-769.74 1231,-750.96 1233.84,-750.39 1236.74,-749.65 1239.63,-748.81"/>
<polygon fill="black" stroke="black" stroke-width="2" points="1240.4,-750.77 1245.5,-746.97 1239.15,-746.76 1240.4,-750.77"/>
</g>
<!-- .{2.switch4.{1.if1.!.await__then&#45;&gt;.{2.switch4.{1.if1.!.await__error -->
<g id="edge31" class="edge">
<title>.{2.switch4.{1.if1.!.await__then&#45;&gt;.{2.switch4.{1.if1.!.await__error</title>
<path fill="none" stroke="#7f7f7f" stroke-width="2" d="M818.77,-837.9C826.74,-830.59 836.69,-821.45 845.31,-813.54"/>
<polygon fill="#7f7f7f" stroke="#7f7f7f" stroke-width="2" points="846.95,-814.89 849.95,-809.28 844.11,-811.79 846.95,-814.89"/>
</g>
<!-- .{2.switch4.{1.if1.{1.&lt;&#45;__store -->
<g id="node26" class="node">
<title>.{2.switch4.{1.if1.{1.&lt;&#45;__store</title>
<path fill="#b3b3b3" stroke="#b3b3b3" stroke-width="2" d="M737.33,-808.96C737.33,-808.96 700.67,-808.96 700.67,-808.96 695.83,-808.96 691,-804.13 691,-799.29 691,-799.29 691,-789.63 691,-789.63 691,-784.79 695.83,-779.96 700.67,-779.96 700.67,-779.96 737.33,-779.96 737.33,-779.96 742.17,-779.96 747,-784.79 747,-789.63 747,-789.63 747,-799.29 747,-799.29 747,-804.13 742.17,-808.96 737.33,-808.96"/>
<text text-anchor="middle" x="719" y="-790.76" font-family="DejaVu Sans Bold" font-size="14.00">store</text>
</g>
<!-- .{2.switch4.{1.if1.!.await__then&#45;&gt;.{2.switch4.{1.if1.{1.&lt;&#45;__store -->
<g id="edge30" class="edge">
<title>.{2.switch4.{1.if1.!.await__then&#45;&gt;.{2.switch4.{1.if1.{1.&lt;&#45;__store</title>
<path fill="none" stroke="black" stroke-width="2" d="M783.42,-837.9C771.82,-830.26 757.2,-820.63 744.83,-812.48"/>
<polygon fill="black" stroke="black" stroke-width="2" points="745.85,-810.63 739.68,-809.09 743.54,-814.14 745.85,-810.63"/>
</g>
<!-- .{2.switch4.{1.if1.!.await.R__eval_&#45;&gt;.{2.switch4.{1.if1.!.await__await_ -->
<g id="edge32" class="edge">
<title>.{2.switch4.{1.if1.!.await.R__eval_&#45;&gt;.{2.switch4.{1.if1.!.await__await_</title>
<path fill="none" stroke="black" stroke-width="2.5" d="M622.58,-985.97C679.1,-984.36 743.74,-979.25 768,-964.96 781.1,-957.25 790.43,-942.66 796.3,-930.67"/>
<polygon fill="black" stroke="black" stroke-width="2.5" points="798.3,-931.36 798.91,-925.03 794.49,-929.6 798.3,-931.36"/>
</g>
<!-- .{2.switch4.{1.if1.{1;__; -->
<g id="node25" class="node">
<title>.{2.switch4.{1.if1.{1;__;</title>
<ellipse fill="#b3b3b3" stroke="#b3b3b3" stroke-width="2" cx="731" cy="-735.48" rx="9" ry="9"/>
<text text-anchor="middle" x="731" y="-731.78" font-family="DejaVu Sans Bold" font-size="14.00">;</text>
</g>
<!-- .{2.switch4.{1.if1.{2.R__eval_ -->
<g id="node27" class="node">
<title>.{2.switch4.{1.if1.{2.R__eval_</title>
<polygon fill="#333333" stroke="#333333" stroke-width="2" points="796.5,-691 691.5,-691 691.5,-663 796.5,-663 796.5,-691"/>
<text text-anchor="middle" x="744" y="-673.6" font-family="DejaVu Sans Mono Bold" font-size="13.00" fill="lightgreen">!..async.tmp</text>
</g>
<!-- .{2.switch4.{1.if1.{1;__;&#45;&gt;.{2.switch4.{1.if1.{2.R__eval_ -->
<g id="edge33" class="edge">
<title>.{2.switch4.{1.if1.{1;__;&#45;&gt;.{2.switch4.{1.if1.{2.R__eval_</title>
<path fill="none" stroke="#7f7f7f" stroke-width="2" d="M732.81,-726.63C734.54,-719.1 737.23,-707.43 739.53,-697.4"/>
<polygon fill="#7f7f7f" stroke="#7f7f7f" stroke-width="2" points="741.61,-697.75 740.91,-691.43 737.52,-696.81 741.61,-697.75"/>
</g>
<!-- .{2.switch4.{1.if1.{1.&lt;&#45;__store&#45;&gt;.{2.switch4.{1.if1.{1;__; -->
<g id="edge34" class="edge">
<title>.{2.switch4.{1.if1.{1.&lt;&#45;__store&#45;&gt;.{2.switch4.{1.if1.{1;__;</title>
<path fill="none" stroke="black" stroke-width="2.5" d="M721.84,-779.96C723.72,-771.06 726.17,-759.43 728.06,-750.44"/>
<polygon fill="black" stroke="black" stroke-width="2.5" points="730.14,-750.74 729.32,-744.44 726.03,-749.88 730.14,-750.74"/>
</g>
<!-- .{2.switch4.{1.if1.{2.R__eval_&#45;&gt;.{2.switch4.{1.if__if_ -->
<g id="edge35" class="edge">
<title>.{2.switch4.{1.if1.{2.R__eval_&#45;&gt;.{2.switch4.{1.if__if_</title>
<path fill="none" stroke="black" stroke-width="2.5" d="M744,-662.68C744,-651.17 744,-634.38 744,-621.29"/>
<polygon fill="black" stroke="black" stroke-width="2.5" points="746.1,-621.21 744,-615.21 741.9,-621.21 746.1,-621.21"/>
</g>
<!-- .{2.switch4.{1.if2.goto__goto_ -->
<g id="node28" class="node">
<title>.{2.switch4.{1.if2.goto__goto_</title>
<path fill="#b3b3b3" stroke="#b3b3b3" stroke-width="2" d="M419.83,-481C419.83,-481 382.17,-481 382.17,-481 377.33,-481 372.5,-476.17 372.5,-471.33 372.5,-471.33 372.5,-461.67 372.5,-461.67 372.5,-456.83 377.33,-452 382.17,-452 382.17,-452 419.83,-452 419.83,-452 424.67,-452 429.5,-456.83 429.5,-461.67 429.5,-461.67 429.5,-471.33 429.5,-471.33 429.5,-476.17 424.67,-481 419.83,-481"/>
<text text-anchor="middle" x="401" y="-462.8" font-family="DejaVu Sans Bold" font-size="14.00">goto_</text>
</g>
<!-- .{2.switch4.{1.if2.goto__goto_&#45;&gt;.{2.switch__goto_ -->
<g id="edge36" class="edge">
<title>.{2.switch4.{1.if2.goto__goto_&#45;&gt;.{2.switch__goto_</title>
<path fill="none" stroke="black" stroke-width="2" d="M387.33,-451.75C368.8,-431.58 338,-391.98 338,-351.5 338,-351.5 338,-351.5 338,-291.5 338,-258.94 345.64,-242.4 322,-220 291.14,-190.75 165.56,-181.49 103.73,-178.67"/>
<polygon fill="black" stroke="black" stroke-width="2" points="103.68,-176.57 97.6,-178.4 103.5,-180.76 103.68,-176.57"/>
</g>
<!-- .{2.switch4.{1.if2.goto.R__eval_&#45;&gt;.{2.switch4.{1.if2.goto__goto_ -->
<g id="edge37" class="edge">
<title>.{2.switch4.{1.if2.goto.R__eval_&#45;&gt;.{2.switch4.{1.if2.goto__goto_</title>
<path fill="none" stroke="black" stroke-width="2" d="M523.7,-528.85C498.59,-516.29 460.67,-497.33 433.63,-483.82"/>
<polygon fill="black" stroke="black" stroke-width="2" points="434.34,-481.82 428.04,-481.02 432.47,-485.58 434.34,-481.82"/>
</g>
<!-- .{2.switch4.{2.tryCatch__continue -->
<g id="node30" class="node">
<title>.{2.switch4.{2.tryCatch__continue</title>
<path fill="#b3b3b3" stroke="#b3b3b3" stroke-width="2" d="M1183.83,-365C1183.83,-365 1120.17,-365 1120.17,-365 1115.33,-365 1110.5,-360.17 1110.5,-355.33 1110.5,-355.33 1110.5,-345.67 1110.5,-345.67 1110.5,-340.83 1115.33,-336 1120.17,-336 1120.17,-336 1183.83,-336 1183.83,-336 1188.67,-336 1193.5,-340.83 1193.5,-345.67 1193.5,-345.67 1193.5,-355.33 1193.5,-355.33 1193.5,-360.17 1188.67,-365 1183.83,-365"/>
<text text-anchor="middle" x="1152" y="-346.8" font-family="DejaVu Sans Bold" font-size="14.00">continue</text>
</g>
<!-- .{2.switch4.{2.tryCatch__do_continue -->
<g id="node31" class="node">
<title>.{2.switch4.{2.tryCatch__do_continue</title>
<path fill="#b3b3b3" stroke="#b3b3b3" stroke-width="2" d="M1188.83,-307C1188.83,-307 1099.17,-307 1099.17,-307 1094.33,-307 1089.5,-302.17 1089.5,-297.33 1089.5,-297.33 1089.5,-287.67 1089.5,-287.67 1089.5,-282.83 1094.33,-278 1099.17,-278 1099.17,-278 1188.83,-278 1188.83,-278 1193.67,-278 1198.5,-282.83 1198.5,-287.67 1198.5,-287.67 1198.5,-297.33 1198.5,-297.33 1198.5,-302.17 1193.67,-307 1188.83,-307"/>
<text text-anchor="middle" x="1144" y="-288.8" font-family="DejaVu Sans Bold" font-size="14.00">do_continue</text>
</g>
<!-- .{2.switch4.{2.tryCatch__continue&#45;&gt;.{2.switch4.{2.tryCatch__do_continue -->
<g id="edge38" class="edge">
<title>.{2.switch4.{2.tryCatch__continue&#45;&gt;.{2.switch4.{2.tryCatch__do_continue</title>
<path fill="none" stroke="#7f7f7f" stroke-width="2.5" stroke-dasharray="5,2" d="M1150.06,-335.94C1149.6,-332.69 1149.08,-329.08 1148.55,-325.38"/>
<ellipse fill="none" stroke="#7f7f7f" stroke-width="2.5" cx="1147.25" cy="-316.23" rx="9" ry="9"/>
<text text-anchor="middle" x="1147.25" y="-311.23" font-family="DejaVu Sans Bold" font-size="20.00" fill="blue">⤼</text>
<text text-anchor="middle" x="1148.79" y="-322.03" font-family="DejaVu Sans Bold" font-size="20.00" fill="blue"> </text>
</g>
<!-- .{2.switch4.{2.tryCatch__do_continue&#45;&gt;return_ -->
<g id="edge39" class="edge">
<title>.{2.switch4.{2.tryCatch__do_continue&#45;&gt;return_</title>
<path fill="none" stroke="black" stroke-width="2" d="M1198.88,-283.74C1244.34,-276.76 1310.61,-265.33 1371.49,-249.61"/>
<polygon fill="black" stroke="black" stroke-width="2" points="1372.09,-251.63 1377.36,-248.08 1371.02,-247.56 1372.09,-251.63"/>
</g>
<!-- .{2.switch4.{2.tryCatch__do_windup -->
<g id="node32" class="node">
<title>.{2.switch4.{2.tryCatch__do_windup</title>
<path fill="#b3b3b3" stroke="#b3b3b3" stroke-width="2" d="M1118.83,-423C1118.83,-423 1041.17,-423 1041.17,-423 1036.33,-423 1031.5,-418.17 1031.5,-413.33 1031.5,-413.33 1031.5,-403.67 1031.5,-403.67 1031.5,-398.83 1036.33,-394 1041.17,-394 1041.17,-394 1118.83,-394 1118.83,-394 1123.67,-394 1128.5,-398.83 1128.5,-403.67 1128.5,-403.67 1128.5,-413.33 1128.5,-413.33 1128.5,-418.17 1123.67,-423 1118.83,-423"/>
<text text-anchor="middle" x="1080" y="-404.8" font-family="DejaVu Sans Bold" font-size="14.00">do_windup</text>
</g>
<!-- .{2.switch4.{2.tryCatch__stop_ -->
<g id="node33" class="node">
<title>.{2.switch4.{2.tryCatch__stop_</title>
<path fill="#b3b3b3" stroke="#b3b3b3" stroke-width="2" d="M1078.33,-365C1078.33,-365 1041.67,-365 1041.67,-365 1036.83,-365 1032,-360.17 1032,-355.33 1032,-355.33 1032,-345.67 1032,-345.67 1032,-340.83 1036.83,-336 1041.67,-336 1041.67,-336 1078.33,-336 1078.33,-336 1083.17,-336 1088,-340.83 1088,-345.67 1088,-345.67 1088,-355.33 1088,-355.33 1088,-360.17 1083.17,-365 1078.33,-365"/>
<text text-anchor="middle" x="1060" y="-346.8" font-family="DejaVu Sans Bold" font-size="14.00">stop_</text>
</g>
<!-- .{2.switch4.{2.tryCatch__do_windup&#45;&gt;.{2.switch4.{2.tryCatch__stop_ -->
<g id="edge40" class="edge">
<title>.{2.switch4.{2.tryCatch__do_windup&#45;&gt;.{2.switch4.{2.tryCatch__stop_</title>
<path fill="none" stroke="black" stroke-width="2" d="M1075.16,-393.94C1072.74,-387.17 1069.76,-378.83 1067.09,-371.35"/>
<polygon fill="black" stroke="black" stroke-width="2" points="1068.93,-370.26 1064.94,-365.32 1064.98,-371.68 1068.93,-370.26"/>
</g>
<!-- .{2.switch4.{2.tryCatch2.goto.R__eval_ -->
<g id="node37" class="node">
<title>.{2.switch4.{2.tryCatch2.goto.R__eval_</title>
<polygon fill="#333333" stroke="#333333" stroke-width="2" points="982,-306.5 930,-306.5 930,-278.5 982,-278.5 982,-306.5"/>
<text text-anchor="middle" x="956" y="-289.1" font-family="DejaVu Sans Mono Bold" font-size="13.00" fill="lightgreen">&quot;txt&quot;</text>
</g>
<!-- .{2.switch4.{2.tryCatch__stop_&#45;&gt;.{2.switch4.{2.tryCatch2.goto.R__eval_ -->
<g id="edge41" class="edge">
<title>.{2.switch4.{2.tryCatch__stop_&#45;&gt;.{2.switch4.{2.tryCatch2.goto.R__eval_</title>
<path fill="none" stroke="#7f7f7f" stroke-width="2.5" stroke-dasharray="5,2" d="M1034.82,-335.94C1023.29,-329.73 1009.33,-322.21 996.38,-315.24"/>
<ellipse fill="none" stroke="#7f7f7f" stroke-width="2.5" cx="988.15" cy="-310.81" rx="9" ry="9"/>
<text text-anchor="middle" x="988.15" y="-305.81" font-family="DejaVu Sans Bold" font-size="20.00" fill="blue">⤼</text>
<text text-anchor="middle" x="1026.9" y="-326.68" font-family="DejaVu Sans Bold" font-size="20.00" fill="blue"> </text>
</g>
<!-- .{2.switch4.{2.tryCatch__try_&#45;&gt;.{2.switch4.{2.tryCatch__do_windup -->
<g id="edge43" class="edge">
<title>.{2.switch4.{2.tryCatch__try_&#45;&gt;.{2.switch4.{2.tryCatch__do_windup</title>
<path fill="none" stroke="#7f7f7f" stroke-width="0.75" d="M1060.29,-451.94C1063.94,-444.08 1068.57,-434.13 1072.42,-425.84"/>
<ellipse fill="#7f7f7f" stroke="#7f7f7f" stroke-width="0.75" cx="1073.08" cy="-424.41" rx="1.2" ry="1.2"/>
</g>
<!-- .{2.switch4.{2.tryCatch1.R__eval_ -->
<g id="node35" class="node">
<title>.{2.switch4.{2.tryCatch1.R__eval_</title>
<polygon fill="#333333" stroke="#333333" stroke-width="2" points="1007.5,-422.5 850.5,-422.5 850.5,-394.5 1007.5,-394.5 1007.5,-422.5"/>
<text text-anchor="middle" x="929" y="-405.1" font-family="DejaVu Sans Mono Bold" font-size="13.00" fill="lightgreen">read_json(filename)</text>
</g>
<!-- .{2.switch4.{2.tryCatch__try_&#45;&gt;.{2.switch4.{2.tryCatch1.R__eval_ -->
<g id="edge42" class="edge">
<title>.{2.switch4.{2.tryCatch__try_&#45;&gt;.{2.switch4.{2.tryCatch1.R__eval_</title>
<path fill="none" stroke="#7f7f7f" stroke-width="2.5" stroke-dasharray="5,2" d="M1045.65,-451.79C1041.16,-445.5 1035.08,-438.46 1028,-434 1025.71,-432.56 1023.33,-431.2 1020.89,-429.92"/>
<ellipse fill="none" stroke="#7f7f7f" stroke-width="2.5" cx="1012.35" cy="-426.19" rx="9" ry="9"/>
<text text-anchor="middle" x="1012.35" y="-421.19" font-family="DejaVu Sans Bold" font-size="20.00" fill="blue">⤽</text>
<text text-anchor="middle" x="1040.34" y="-439.53" font-family="DejaVu Sans Bold" font-size="20.00" fill="blue"> </text>
</g>
<!-- .{2.switch4.{2.tryCatch1.R__eval_&#45;&gt;.{2.switch4.{2.tryCatch__continue -->
<g id="edge44" class="edge">
<title>.{2.switch4.{2.tryCatch1.R__eval_&#45;&gt;.{2.switch4.{2.tryCatch__continue</title>
<path fill="none" stroke="black" stroke-width="2.5" d="M987.33,-394.46C1020.62,-386.8 1063.24,-376.65 1104.53,-365.65"/>
<polygon fill="black" stroke="black" stroke-width="2.5" points="1105.09,-367.67 1110.35,-364.09 1104.01,-363.61 1105.09,-367.67"/>
</g>
<!-- .{2.switch4.{2.tryCatch2.goto__goto_ -->
<g id="node36" class="node">
<title>.{2.switch4.{2.tryCatch2.goto__goto_</title>
<path fill="#b3b3b3" stroke="#b3b3b3" stroke-width="2" d="M923.83,-249C923.83,-249 886.17,-249 886.17,-249 881.33,-249 876.5,-244.17 876.5,-239.33 876.5,-239.33 876.5,-229.67 876.5,-229.67 876.5,-224.83 881.33,-220 886.17,-220 886.17,-220 923.83,-220 923.83,-220 928.67,-220 933.5,-224.83 933.5,-229.67 933.5,-229.67 933.5,-239.33 933.5,-239.33 933.5,-244.17 928.67,-249 923.83,-249"/>
<text text-anchor="middle" x="905" y="-230.8" font-family="DejaVu Sans Bold" font-size="14.00">goto_</text>
</g>
<!-- .{2.switch4.{2.tryCatch2.goto__goto_&#45;&gt;.{2.switch__goto_ -->
<g id="edge45" class="edge">
<title>.{2.switch4.{2.tryCatch2.goto__goto_&#45;&gt;.{2.switch__goto_</title>
<path fill="none" stroke="black" stroke-width="2" d="M876.2,-220.82C875.12,-220.52 874.06,-220.24 873,-220 723.32,-185.58 238.13,-178.94 103.77,-177.74"/>
<polygon fill="black" stroke="black" stroke-width="2" points="103.66,-175.64 97.64,-177.69 103.62,-179.84 103.66,-175.64"/>
</g>
<!-- .{2.switch4.{2.tryCatch2.goto.R__eval_&#45;&gt;.{2.switch4.{2.tryCatch2.goto__goto_ -->
<g id="edge46" class="edge">
<title>.{2.switch4.{2.tryCatch2.goto.R__eval_&#45;&gt;.{2.switch4.{2.tryCatch2.goto__goto_</title>
<path fill="none" stroke="black" stroke-width="2" d="M943.91,-278.23C937.28,-270.94 928.95,-261.8 921.7,-253.84"/>
<polygon fill="black" stroke="black" stroke-width="2" points="922.95,-252.09 917.35,-249.06 919.84,-254.92 922.95,-252.09"/>
</g>
<!-- .{2.switch5.{1;__; -->
<g id="node38" class="node">
<title>.{2.switch5.{1;__;</title>
<ellipse fill="#b3b3b3" stroke="#b3b3b3" stroke-width="2" cx="256" cy="-735.48" rx="9" ry="9"/>
<text text-anchor="middle" x="256" y="-731.78" font-family="DejaVu Sans Bold" font-size="14.00">;</text>
</g>
<!-- .{2.switch5.{2.on.exit.add__eval_ -->
<g id="node47" class="node">
<title>.{2.switch5.{2.on.exit.add__eval_</title>
<polygon fill="#333333" stroke="#333333" stroke-width="2" points="275,-691 223,-691 223,-663 275,-663 275,-691"/>
<text text-anchor="middle" x="249" y="-673.6" font-family="DejaVu Sans Mono Bold" font-size="13.00" fill="lightgreen">FALSE</text>
</g>
<!-- .{2.switch5.{1;__;&#45;&gt;.{2.switch5.{2.on.exit.add__eval_ -->
<g id="edge47" class="edge">
<title>.{2.switch5.{1;__;&#45;&gt;.{2.switch5.{2.on.exit.add__eval_</title>
<path fill="none" stroke="#7f7f7f" stroke-width="2" d="M254.97,-726.15C254.03,-718.6 252.62,-707.18 251.4,-697.36"/>
<polygon fill="#7f7f7f" stroke="#7f7f7f" stroke-width="2" points="253.46,-696.89 250.64,-691.19 249.29,-697.41 253.46,-696.89"/>
</g>
<!-- .{2.switch5.{1.&lt;&#45;__store -->
<g id="node39" class="node">
<title>.{2.switch5.{1.&lt;&#45;__store</title>
<path fill="#b3b3b3" stroke="#b3b3b3" stroke-width="2" d="M279.33,-808.96C279.33,-808.96 242.67,-808.96 242.67,-808.96 237.83,-808.96 233,-804.13 233,-799.29 233,-799.29 233,-789.63 233,-789.63 233,-784.79 237.83,-779.96 242.67,-779.96 242.67,-779.96 279.33,-779.96 279.33,-779.96 284.17,-779.96 289,-784.79 289,-789.63 289,-789.63 289,-799.29 289,-799.29 289,-804.13 284.17,-808.96 279.33,-808.96"/>
<text text-anchor="middle" x="261" y="-790.76" font-family="DejaVu Sans Bold" font-size="14.00">store</text>
</g>
<!-- .{2.switch5.{1.&lt;&#45;__store&#45;&gt;.{2.switch5.{1;__; -->
<g id="edge48" class="edge">
<title>.{2.switch5.{1.&lt;&#45;__store&#45;&gt;.{2.switch5.{1;__;</title>
<path fill="none" stroke="black" stroke-width="2.5" d="M259.82,-779.96C259.04,-771.17 258.04,-759.71 257.25,-750.77"/>
<polygon fill="black" stroke="black" stroke-width="2.5" points="259.34,-750.57 256.73,-744.77 255.16,-750.93 259.34,-750.57"/>
</g>
<!-- .{2.switch5.{1.&lt;&#45;2.await__await_ -->
<g id="node40" class="node">
<title>.{2.switch5.{1.&lt;&#45;2.await__await_</title>
<path fill="#b3b3b3" stroke="#b3b3b3" stroke-width="2" d="M368.83,-924.96C368.83,-924.96 323.17,-924.96 323.17,-924.96 318.33,-924.96 313.5,-920.13 313.5,-915.29 313.5,-915.29 313.5,-905.63 313.5,-905.63 313.5,-900.79 318.33,-895.96 323.17,-895.96 323.17,-895.96 368.83,-895.96 368.83,-895.96 373.67,-895.96 378.5,-900.79 378.5,-905.63 378.5,-905.63 378.5,-915.29 378.5,-915.29 378.5,-920.13 373.67,-924.96 368.83,-924.96"/>
<text text-anchor="middle" x="346" y="-906.76" font-family="DejaVu Sans Bold" font-size="14.00">await_</text>
</g>
<!-- .{2.switch5.{1.&lt;&#45;2.await__then -->
<g id="node42" class="node">
<title>.{2.switch5.{1.&lt;&#45;2.await__then</title>
<path fill="#b3b3b3" stroke="#b3b3b3" stroke-width="2" d="M361.83,-866.96C361.83,-866.96 330.17,-866.96 330.17,-866.96 325.33,-866.96 320.5,-862.13 320.5,-857.29 320.5,-857.29 320.5,-847.63 320.5,-847.63 320.5,-842.79 325.33,-837.96 330.17,-837.96 330.17,-837.96 361.83,-837.96 361.83,-837.96 366.67,-837.96 371.5,-842.79 371.5,-847.63 371.5,-847.63 371.5,-857.29 371.5,-857.29 371.5,-862.13 366.67,-866.96 361.83,-866.96"/>
<text text-anchor="middle" x="346" y="-848.76" font-family="DejaVu Sans Bold" font-size="14.00">then</text>
</g>
<!-- .{2.switch5.{1.&lt;&#45;2.await__await_&#45;&gt;.{2.switch5.{1.&lt;&#45;2.await__then -->
<g id="edge49" class="edge">
<title>.{2.switch5.{1.&lt;&#45;2.await__await_&#45;&gt;.{2.switch5.{1.&lt;&#45;2.await__then</title>
<path fill="none" stroke="#7f7f7f" stroke-width="2.5" stroke-dasharray="5,2" d="M346,-895.9C346,-889.13 346,-880.8 346,-873.31"/>
<polygon fill="#7f7f7f" stroke="#7f7f7f" stroke-width="2.5" points="348.1,-873.28 346,-867.28 343.9,-873.28 348.1,-873.28"/>
</g>
<!-- .{2.switch5.{1.&lt;&#45;2.await__error -->
<g id="node41" class="node">
<title>.{2.switch5.{1.&lt;&#45;2.await__error</title>
<path fill="#b3b3b3" stroke="#b3b3b3" stroke-width="2" d="M421.33,-808.96C421.33,-808.96 386.67,-808.96 386.67,-808.96 381.83,-808.96 377,-804.13 377,-799.29 377,-799.29 377,-789.63 377,-789.63 377,-784.79 381.83,-779.96 386.67,-779.96 386.67,-779.96 421.33,-779.96 421.33,-779.96 426.17,-779.96 431,-784.79 431,-789.63 431,-789.63 431,-799.29 431,-799.29 431,-804.13 426.17,-808.96 421.33,-808.96"/>
<text text-anchor="middle" x="404" y="-790.76" font-family="DejaVu Sans Bold" font-size="14.00">error</text>
</g>
<!-- .{2.switch5.{1.&lt;&#45;2.await__error&#45;&gt;stop_ -->
<g id="edge50" class="edge">
<title>.{2.switch5.{1.&lt;&#45;2.await__error&#45;&gt;stop_</title>
<path fill="none" stroke="black" stroke-width="2" d="M431.34,-789.48C480.82,-782.47 588.57,-768.08 680,-761.96 741.1,-757.87 1170.8,-762.14 1231,-750.96 1233.85,-750.43 1236.76,-749.73 1239.65,-748.91"/>
<polygon fill="black" stroke="black" stroke-width="2" points="1240.41,-750.87 1245.52,-747.1 1239.17,-746.86 1240.41,-750.87"/>
</g>
<!-- .{2.switch5.{1.&lt;&#45;2.await__then&#45;&gt;.{2.switch5.{1.&lt;&#45;__store -->
<g id="edge51" class="edge">
<title>.{2.switch5.{1.&lt;&#45;2.await__then&#45;&gt;.{2.switch5.{1.&lt;&#45;__store</title>
<path fill="none" stroke="black" stroke-width="2" d="M325.42,-837.9C313.82,-830.26 299.2,-820.63 286.83,-812.48"/>
<polygon fill="black" stroke="black" stroke-width="2" points="287.85,-810.63 281.68,-809.09 285.54,-814.14 287.85,-810.63"/>
</g>
<!-- .{2.switch5.{1.&lt;&#45;2.await__then&#45;&gt;.{2.switch5.{1.&lt;&#45;2.await__error -->
<g id="edge52" class="edge">
<title>.{2.switch5.{1.&lt;&#45;2.await__then&#45;&gt;.{2.switch5.{1.&lt;&#45;2.await__error</title>
<path fill="none" stroke="#7f7f7f" stroke-width="2" d="M360.04,-837.9C367.62,-830.59 377.08,-821.45 385.28,-813.54"/>
<polygon fill="#7f7f7f" stroke="#7f7f7f" stroke-width="2" points="386.83,-814.96 389.69,-809.28 383.91,-811.94 386.83,-814.96"/>
</g>
<!-- .{2.switch5.{1.&lt;&#45;2.await.R__eval_&#45;&gt;.{2.switch5.{1.&lt;&#45;2.await__await_ -->
<g id="edge53" class="edge">
<title>.{2.switch5.{1.&lt;&#45;2.await.R__eval_&#45;&gt;.{2.switch5.{1.&lt;&#45;2.await__await_</title>
<path fill="none" stroke="black" stroke-width="2.5" d="M323.83,-972.64C328.04,-961.03 334.2,-944.03 338.96,-930.9"/>
<polygon fill="black" stroke="black" stroke-width="2.5" points="340.96,-931.53 341.03,-925.17 337.01,-930.09 340.96,-931.53"/>
</g>
<!-- .{2.switch5.{2;__; -->
<g id="node44" class="node">
<title>.{2.switch5.{2;__;</title>
<ellipse fill="#b3b3b3" stroke="#b3b3b3" stroke-width="2" cx="223" cy="-408.5" rx="9" ry="9"/>
<text text-anchor="middle" x="223" y="-404.8" font-family="DejaVu Sans Bold" font-size="14.00">;</text>
</g>
<!-- .{2.switch5.{3.goto.R__eval_ -->
<g id="node51" class="node">
<title>.{2.switch5.{3.goto.R__eval_</title>
<polygon fill="#333333" stroke="#333333" stroke-width="2" points="303,-364.5 123,-364.5 123,-336.5 303,-336.5 303,-364.5"/>
<text text-anchor="middle" x="213" y="-347.1" font-family="DejaVu Sans Mono Bold" font-size="13.00" fill="lightgreen">getExtension(unzipped)</text>
</g>
<!-- .{2.switch5.{2;__;&#45;&gt;.{2.switch5.{3.goto.R__eval_ -->
<g id="edge54" class="edge">
<title>.{2.switch5.{2;__;&#45;&gt;.{2.switch5.{3.goto.R__eval_</title>
<path fill="none" stroke="#7f7f7f" stroke-width="2" d="M221.52,-399.24C220.19,-391.75 218.17,-380.43 216.43,-370.69"/>
<polygon fill="#7f7f7f" stroke="#7f7f7f" stroke-width="2" points="218.46,-370.12 215.34,-364.58 214.32,-370.86 218.46,-370.12"/>
</g>
<!-- .{2.switch5.{2.on.exit__gotAdd -->
<g id="node45" class="node">
<title>.{2.switch5.{2.on.exit__gotAdd</title>
<path fill="#b3b3b3" stroke="#b3b3b3" stroke-width="2" d="M267.83,-615C267.83,-615 216.17,-615 216.17,-615 211.33,-615 206.5,-610.17 206.5,-605.33 206.5,-605.33 206.5,-595.67 206.5,-595.67 206.5,-590.83 211.33,-586 216.17,-586 216.17,-586 267.83,-586 267.83,-586 272.67,-586 277.5,-590.83 277.5,-595.67 277.5,-595.67 277.5,-605.33 277.5,-605.33 277.5,-610.17 272.67,-615 267.83,-615"/>
<text text-anchor="middle" x="242" y="-596.8" font-family="DejaVu Sans Bold" font-size="14.00">gotAdd</text>
</g>
<!-- .{2.switch5.{2.on.exit.after__eval_ -->
<g id="node48" class="node">
<title>.{2.switch5.{2.on.exit.after__eval_</title>
<polygon fill="#333333" stroke="#333333" stroke-width="2" points="167.5,-557 122.5,-557 122.5,-529 167.5,-529 167.5,-557"/>
<text text-anchor="middle" x="145" y="-539.6" font-family="DejaVu Sans Mono Bold" font-size="13.00" fill="lightgreen">TRUE</text>
</g>
<!-- .{2.switch5.{2.on.exit__gotAdd&#45;&gt;.{2.switch5.{2.on.exit.after__eval_ -->
<g id="edge55" class="edge">
<title>.{2.switch5.{2.on.exit__gotAdd&#45;&gt;.{2.switch5.{2.on.exit.after__eval_</title>
<path fill="none" stroke="#7f7f7f" stroke-width="2" d="M218.02,-585.78C204.45,-578.02 187.41,-568.26 173.2,-560.13"/>
<polygon fill="#7f7f7f" stroke="#7f7f7f" stroke-width="2" points="173.95,-558.15 167.7,-556.99 171.87,-561.79 173.95,-558.15"/>
</g>
<!-- .{2.switch5.{2.on.exit__gotAfter -->
<g id="node46" class="node">
<title>.{2.switch5.{2.on.exit__gotAfter</title>
<path fill="#b3b3b3" stroke="#b3b3b3" stroke-width="2" d="M263.83,-481C263.83,-481 202.17,-481 202.17,-481 197.33,-481 192.5,-476.17 192.5,-471.33 192.5,-471.33 192.5,-461.67 192.5,-461.67 192.5,-456.83 197.33,-452 202.17,-452 202.17,-452 263.83,-452 263.83,-452 268.67,-452 273.5,-456.83 273.5,-461.67 273.5,-461.67 273.5,-471.33 273.5,-471.33 273.5,-476.17 268.67,-481 263.83,-481"/>
<text text-anchor="middle" x="233" y="-462.8" font-family="DejaVu Sans Bold" font-size="14.00">gotAfter</text>
</g>
<!-- .{2.switch5.{2.on.exit__gotAfter&#45;&gt;.{2.switch5.{2;__; -->
<g id="edge56" class="edge">
<title>.{2.switch5.{2.on.exit__gotAfter&#45;&gt;.{2.switch5.{2;__;</title>
<path fill="none" stroke="#7f7f7f" stroke-width="2.5" stroke-dasharray="5,2" d="M230.58,-451.94C229.05,-443.38 227.08,-432.33 225.53,-423.66"/>
<polygon fill="#7f7f7f" stroke="#7f7f7f" stroke-width="2.5" points="227.56,-423.1 224.44,-417.56 223.43,-423.84 227.56,-423.1"/>
</g>
<!-- .{2.switch5.{2.on.exit.add__eval_&#45;&gt;.{2.switch5.{2.on.exit__gotAdd -->
<g id="edge57" class="edge">
<title>.{2.switch5.{2.on.exit.add__eval_&#45;&gt;.{2.switch5.{2.on.exit__gotAdd</title>
<path fill="none" stroke="black" stroke-width="2" d="M247.75,-662.68C246.67,-651.17 245.09,-634.38 243.86,-621.29"/>
<polygon fill="black" stroke="black" stroke-width="2" points="245.94,-620.99 243.29,-615.21 241.76,-621.38 245.94,-620.99"/>
</g>
<!-- .{2.switch5.{2.on.exit.after__eval_&#45;&gt;.{2.switch5.{2.on.exit__gotAfter -->
<g id="edge58" class="edge">
<title>.{2.switch5.{2.on.exit.after__eval_&#45;&gt;.{2.switch5.{2.on.exit__gotAfter</title>
<path fill="none" stroke="black" stroke-width="2" d="M167.58,-533.51C174.81,-530.21 182.6,-526.01 189,-521 201.48,-511.23 212.78,-497.34 220.8,-486.16"/>
<polygon fill="black" stroke="black" stroke-width="2" points="222.52,-487.36 224.24,-481.24 219.08,-484.95 222.52,-487.36"/>
</g>
<!-- .{2.switch5.{2.on.exit.R__eval_ -->
<g id="node49" class="node">
<title>.{2.switch5.{2.on.exit.R__eval_</title>
<polygon fill="#333333" stroke="#333333" stroke-width="2" points="1422.5,-75 1287.5,-75 1287.5,-47 1422.5,-47 1422.5,-75"/>
<text text-anchor="middle" x="1355" y="-57.6" font-family="DejaVu Sans Mono Bold" font-size="13.00" fill="lightgreen">unlink(unzipped)</text>
</g>
<!-- pump.exit_1;__; -->
<g id="node65" class="node">
<title>pump.exit_1;__;</title>
<ellipse fill="#b3b3b3" stroke="#b3b3b3" stroke-width="2" cx="1406" cy="-9" rx="9" ry="9"/>
<text text-anchor="middle" x="1406" y="-5.3" font-family="DejaVu Sans Bold" font-size="14.00">;</text>
</g>
<!-- .{2.switch5.{2.on.exit.R__eval_&#45;&gt;pump.exit_1;__; -->
<g id="edge59" class="edge">
<title>.{2.switch5.{2.on.exit.R__eval_&#45;&gt;pump.exit_1;__;</title>
<path fill="none" stroke="black" stroke-width="2.5" d="M1368.4,-46.86C1376.9,-38.52 1387.75,-27.89 1395.6,-20.19"/>
<polygon fill="black" stroke="black" stroke-width="2.5" points="1397.24,-21.52 1400.06,-15.82 1394.3,-18.53 1397.24,-21.52"/>
</g>
<!-- .{2.switch5.{3.goto__goto_ -->
<g id="node50" class="node">
<title>.{2.switch5.{3.goto__goto_</title>
<path fill="#b3b3b3" stroke="#b3b3b3" stroke-width="2" d="M185.83,-249C185.83,-249 148.17,-249 148.17,-249 143.33,-249 138.5,-244.17 138.5,-239.33 138.5,-239.33 138.5,-229.67 138.5,-229.67 138.5,-224.83 143.33,-220 148.17,-220 148.17,-220 185.83,-220 185.83,-220 190.67,-220 195.5,-224.83 195.5,-229.67 195.5,-229.67 195.5,-239.33 195.5,-239.33 195.5,-244.17 190.67,-249 185.83,-249"/>
<text text-anchor="middle" x="167" y="-230.8" font-family="DejaVu Sans Bold" font-size="14.00">goto_</text>
</g>
<!-- .{2.switch5.{3.goto__goto_&#45;&gt;.{2.switch__goto_ -->
<g id="edge60" class="edge">
<title>.{2.switch5.{3.goto__goto_&#45;&gt;.{2.switch__goto_</title>
<path fill="none" stroke="black" stroke-width="2" d="M143.28,-219.94C129.77,-212.23 112.75,-202.5 98.4,-194.3"/>
<polygon fill="black" stroke="black" stroke-width="2" points="99.1,-192.28 92.84,-191.13 97.01,-195.93 99.1,-192.28"/>
</g>
<!-- .{2.switch5.{3.goto.R__eval_&#45;&gt;.{2.switch5.{3.goto__goto_ -->
<g id="edge61" class="edge">
<title>.{2.switch5.{3.goto.R__eval_&#45;&gt;.{2.switch5.{3.goto__goto_</title>
<path fill="none" stroke="black" stroke-width="2.5" d="M207.72,-336.42C199.66,-316.45 184.24,-278.23 174.86,-254.98"/>
<polygon fill="black" stroke="black" stroke-width="2.5" points="176.69,-253.91 172.5,-249.13 172.8,-255.48 176.69,-253.91"/>
</g>
<!-- async__await_ -->
<g id="node52" class="node">
<title>async__await_</title>
<path fill="#b3b3b3" stroke="#b3b3b3" stroke-width="2" d="M1585.83,-1444.18C1585.83,-1444.18 1540.17,-1444.18 1540.17,-1444.18 1535.33,-1444.18 1530.5,-1439.34 1530.5,-1434.51 1530.5,-1434.51 1530.5,-1424.84 1530.5,-1424.84 1530.5,-1420.01 1535.33,-1415.18 1540.17,-1415.18 1540.17,-1415.18 1585.83,-1415.18 1585.83,-1415.18 1590.67,-1415.18 1595.5,-1420.01 1595.5,-1424.84 1595.5,-1424.84 1595.5,-1434.51 1595.5,-1434.51 1595.5,-1439.34 1590.67,-1444.18 1585.83,-1444.18"/>
<text text-anchor="middle" x="1563" y="-1425.98" font-family="DejaVu Sans Bold" font-size="14.00">await_</text>
</g>
<!-- async__check_wake -->
<g id="node53" class="node">
<title>async__check_wake</title>
<path fill="#b3b3b3" stroke="#b3b3b3" stroke-width="2" d="M1607.33,-1366.96C1607.33,-1366.96 1518.67,-1366.96 1518.67,-1366.96 1513.83,-1366.96 1509,-1362.13 1509,-1357.29 1509,-1357.29 1509,-1347.63 1509,-1347.63 1509,-1342.79 1513.83,-1337.96 1518.67,-1337.96 1518.67,-1337.96 1607.33,-1337.96 1607.33,-1337.96 1612.17,-1337.96 1617,-1342.79 1617,-1347.63 1617,-1347.63 1617,-1357.29 1617,-1357.29 1617,-1362.13 1612.17,-1366.96 1607.33,-1366.96"/>
<text text-anchor="middle" x="1563" y="-1348.76" font-family="DejaVu Sans Bold" font-size="14.00">check_wake</text>
</g>
<!-- async__await_&#45;&gt;async__check_wake -->
<g id="edge62" class="edge">
<title>async__await_&#45;&gt;async__check_wake</title>
<path fill="none" stroke="#7f7f7f" stroke-width="2" d="M1563,-1414.88C1563,-1403.22 1563,-1386.36 1563,-1373.26"/>
<polygon fill="#7f7f7f" stroke="#7f7f7f" stroke-width="2" points="1565.1,-1373.17 1563,-1367.17 1560.9,-1373.17 1565.1,-1373.17"/>
</g>
<!-- pump -->
<g id="node57" class="node">
<title>pump</title>
<path fill="#b3b3b3" stroke="#b3b3b3" stroke-width="2" d="M1449.33,-1308.96C1449.33,-1308.96 1410.67,-1308.96 1410.67,-1308.96 1405.83,-1308.96 1401,-1304.13 1401,-1299.29 1401,-1299.29 1401,-1289.63 1401,-1289.63 1401,-1284.79 1405.83,-1279.96 1410.67,-1279.96 1410.67,-1279.96 1449.33,-1279.96 1449.33,-1279.96 1454.17,-1279.96 1459,-1284.79 1459,-1289.63 1459,-1289.63 1459,-1299.29 1459,-1299.29 1459,-1304.13 1454.17,-1308.96 1449.33,-1308.96"/>
<text text-anchor="middle" x="1430" y="-1290.76" font-family="DejaVu Sans Bold" font-size="14.00">pump</text>
</g>
<!-- async__check_wake&#45;&gt;pump -->
<g id="edge63" class="edge">
<title>async__check_wake&#45;&gt;pump</title>
<path fill="none" stroke="#7f7f7f" stroke-width="2" d="M1530.8,-1337.9C1510.85,-1329.5 1485.21,-1318.71 1464.79,-1310.11"/>
<polygon fill="#7f7f7f" stroke="#7f7f7f" stroke-width="2" points="1465.52,-1308.14 1459.18,-1307.75 1463.89,-1312.01 1465.52,-1308.14"/>
</g>
<!-- async__return_ -->
<g id="node54" class="node">
<title>async__return_</title>
<path fill="#b3b3b3" stroke="#b3b3b3" stroke-width="2" d="M1648.83,-1192.96C1648.83,-1192.96 1597.17,-1192.96 1597.17,-1192.96 1592.33,-1192.96 1587.5,-1188.13 1587.5,-1183.29 1587.5,-1183.29 1587.5,-1173.63 1587.5,-1173.63 1587.5,-1168.79 1592.33,-1163.96 1597.17,-1163.96 1597.17,-1163.96 1648.83,-1163.96 1648.83,-1163.96 1653.67,-1163.96 1658.5,-1168.79 1658.5,-1173.63 1658.5,-1173.63 1658.5,-1183.29 1658.5,-1183.29 1658.5,-1188.13 1653.67,-1192.96 1648.83,-1192.96"/>
<text text-anchor="middle" x="1623" y="-1174.76" font-family="DejaVu Sans Bold" font-size="14.00">return_</text>
</g>
<!-- async__stop_ -->
<g id="node55" class="node">
<title>async__stop_</title>
<path fill="#b3b3b3" stroke="#b3b3b3" stroke-width="2" d="M1555.33,-1192.96C1555.33,-1192.96 1518.67,-1192.96 1518.67,-1192.96 1513.83,-1192.96 1509,-1188.13 1509,-1183.29 1509,-1183.29 1509,-1173.63 1509,-1173.63 1509,-1168.79 1513.83,-1163.96 1518.67,-1163.96 1518.67,-1163.96 1555.33,-1163.96 1555.33,-1163.96 1560.17,-1163.96 1565,-1168.79 1565,-1173.63 1565,-1173.63 1565,-1183.29 1565,-1183.29 1565,-1188.13 1560.17,-1192.96 1555.33,-1192.96"/>
<text text-anchor="middle" x="1537" y="-1174.76" font-family="DejaVu Sans Bold" font-size="14.00">stop_</text>
</g>
<!-- base_winding -->
<g id="node56" class="node">
<title>base_winding</title>
<path fill="#b3b3b3" stroke="#b3b3b3" stroke-width="2" d="M1345.33,-249C1345.33,-249 1244.67,-249 1244.67,-249 1239.83,-249 1235,-244.17 1235,-239.33 1235,-239.33 1235,-229.67 1235,-229.67 1235,-224.83 1239.83,-220 1244.67,-220 1244.67,-220 1345.33,-220 1345.33,-220 1350.17,-220 1355,-224.83 1355,-229.67 1355,-229.67 1355,-239.33 1355,-239.33 1355,-244.17 1350.17,-249 1345.33,-249"/>
<text text-anchor="middle" x="1295" y="-230.8" font-family="DejaVu Sans Bold" font-size="14.00">base_winding</text>
</g>
<!-- pump__doExits -->
<g id="node59" class="node">
<title>pump__doExits</title>
<path fill="#b3b3b3" stroke="#b3b3b3" stroke-width="2" d="M1439.33,-191C1439.33,-191 1386.67,-191 1386.67,-191 1381.83,-191 1377,-186.17 1377,-181.33 1377,-181.33 1377,-171.67 1377,-171.67 1377,-166.83 1381.83,-162 1386.67,-162 1386.67,-162 1439.33,-162 1439.33,-162 1444.17,-162 1449,-166.83 1449,-171.67 1449,-171.67 1449,-181.33 1449,-181.33 1449,-186.17 1444.17,-191 1439.33,-191"/>
<text text-anchor="middle" x="1413" y="-172.8" font-family="DejaVu Sans Bold" font-size="14.00">doExits</text>
</g>
<!-- base_winding&#45;&gt;pump__doExits -->
<g id="edge64" class="edge">
<title>base_winding&#45;&gt;pump__doExits</title>
<path fill="none" stroke="black" stroke-width="2.5" stroke-dasharray="5,2" d="M1323.56,-219.94C1340.11,-212.09 1361.05,-202.15 1378.51,-193.87"/>
<polygon fill="black" stroke="black" stroke-width="2.5" points="1379.77,-195.6 1384.29,-191.13 1377.97,-191.8 1379.77,-195.6"/>
</g>
<!-- pump__afterExit -->
<g id="node58" class="node">
<title>pump__afterExit</title>
<path fill="#b3b3b3" stroke="#b3b3b3" stroke-width="2" d="M1355.33,-1250.96C1355.33,-1250.96 1290.67,-1250.96 1290.67,-1250.96 1285.83,-1250.96 1281,-1246.13 1281,-1241.29 1281,-1241.29 1281,-1231.63 1281,-1231.63 1281,-1226.79 1285.83,-1221.96 1290.67,-1221.96 1290.67,-1221.96 1355.33,-1221.96 1355.33,-1221.96 1360.17,-1221.96 1365,-1226.79 1365,-1231.63 1365,-1231.63 1365,-1241.29 1365,-1241.29 1365,-1246.13 1360.17,-1250.96 1355.33,-1250.96"/>
<text text-anchor="middle" x="1323" y="-1232.76" font-family="DejaVu Sans Bold" font-size="14.00">afterExit</text>
</g>
<!-- pump&#45;&gt;pump__afterExit -->
<g id="edge66" class="edge">
<title>pump&#45;&gt;pump__afterExit</title>
<path fill="none" stroke="#7f7f7f" stroke-width="2" d="M1404.1,-1279.9C1389.23,-1272.12 1370.43,-1262.29 1354.69,-1254.04"/>
<polygon fill="#7f7f7f" stroke="#7f7f7f" stroke-width="2" points="1355.32,-1252.01 1349.03,-1251.09 1353.38,-1255.73 1355.32,-1252.01"/>
</g>
<!-- runPump -->
<g id="node63" class="node">
<title>runPump</title>
<path fill="#b3b3b3" stroke="#b3b3b3" stroke-width="2" d="M1462.83,-1250.96C1462.83,-1250.96 1397.17,-1250.96 1397.17,-1250.96 1392.33,-1250.96 1387.5,-1246.13 1387.5,-1241.29 1387.5,-1241.29 1387.5,-1231.63 1387.5,-1231.63 1387.5,-1226.79 1392.33,-1221.96 1397.17,-1221.96 1397.17,-1221.96 1462.83,-1221.96 1462.83,-1221.96 1467.67,-1221.96 1472.5,-1226.79 1472.5,-1231.63 1472.5,-1231.63 1472.5,-1241.29 1472.5,-1241.29 1472.5,-1246.13 1467.67,-1250.96 1462.83,-1250.96"/>
<text text-anchor="middle" x="1430" y="-1232.76" font-family="DejaVu Sans Bold" font-size="14.00">runPump</text>
</g>
<!-- pump&#45;&gt;runPump -->
<g id="edge67" class="edge">
<title>pump&#45;&gt;runPump</title>
<path fill="none" stroke="#7f7f7f" stroke-width="2.5" stroke-dasharray="5,2" d="M1430,-1279.9C1430,-1273.13 1430,-1264.8 1430,-1257.31"/>
<polygon fill="#7f7f7f" stroke="#7f7f7f" stroke-width="2.5" points="1432.1,-1257.28 1430,-1251.28 1427.9,-1257.28 1432.1,-1257.28"/>
</g>
<!-- pump__afterExit&#45;&gt;async__return_ -->
<g id="edge68" class="edge">
<title>pump__afterExit&#45;&gt;async__return_</title>
<path fill="none" stroke="black" stroke-width="2" d="M1341.47,-1221.72C1351.46,-1215.09 1364.31,-1207.75 1377,-1203.96 1463.37,-1178.13 1492.34,-1209.25 1581.45,-1193.35"/>
<polygon fill="black" stroke="black" stroke-width="2" points="1581.89,-1195.4 1587.4,-1192.23 1581.12,-1191.27 1581.89,-1195.4"/>
</g>
<!-- pump__afterExit&#45;&gt;async__stop_ -->
<g id="edge69" class="edge">
<title>pump__afterExit&#45;&gt;async__stop_</title>
<path fill="none" stroke="black" stroke-width="2" d="M1341.52,-1221.89C1351.52,-1215.3 1364.38,-1207.96 1377,-1203.96 1429.52,-1187.32 1448.25,-1205.31 1502.79,-1193.31"/>
<polygon fill="black" stroke="black" stroke-width="2" points="1503.54,-1195.3 1508.9,-1191.88 1502.57,-1191.21 1503.54,-1195.3"/>
</g>
<!-- pump__takeExit -->
<g id="node60" class="node">
<title>pump__takeExit</title>
<path fill="#b3b3b3" stroke="#b3b3b3" stroke-width="2" d="M1399.33,-133C1399.33,-133 1338.67,-133 1338.67,-133 1333.83,-133 1329,-128.17 1329,-123.33 1329,-123.33 1329,-113.67 1329,-113.67 1329,-108.83 1333.83,-104 1338.67,-104 1338.67,-104 1399.33,-104 1399.33,-104 1404.17,-104 1409,-108.83 1409,-113.67 1409,-113.67 1409,-123.33 1409,-123.33 1409,-128.17 1404.17,-133 1399.33,-133"/>
<text text-anchor="middle" x="1369" y="-114.8" font-family="DejaVu Sans Bold" font-size="14.00">takeExit</text>
</g>
<!-- pump__doExits&#45;&gt;pump__takeExit -->
<g id="edge70" class="edge">
<title>pump__doExits&#45;&gt;pump__takeExit</title>
<path fill="none" stroke="black" stroke-width="2" d="M1402.35,-161.94C1396.81,-154.9 1389.95,-146.17 1383.9,-138.46"/>
<polygon fill="black" stroke="black" stroke-width="2" points="1385.22,-136.74 1379.86,-133.32 1381.91,-139.34 1385.22,-136.74"/>
</g>
<!-- pump__takeExit&#45;&gt;.{2.switch5.{2.on.exit.R__eval_ -->
<g id="edge71" class="edge">
<title>pump__takeExit&#45;&gt;.{2.switch5.{2.on.exit.R__eval_</title>
<path fill="none" stroke="#7f7f7f" stroke-width="2.5" stroke-dasharray="5,2" d="M1365.54,-103.78C1363.82,-96.96 1361.71,-88.6 1359.83,-81.16"/>
<polygon fill="#7f7f7f" stroke="#7f7f7f" stroke-width="2.5" points="1361.83,-80.48 1358.32,-75.18 1357.76,-81.51 1361.83,-80.48"/>
</g>
<!-- pump__unwind_exit_ -->
<g id="node61" class="node">
<title>pump__unwind_exit_</title>
<path fill="#b3b3b3" stroke="#b3b3b3" stroke-width="2" d="M1401.33,-1444.18C1401.33,-1444.18 1306.67,-1444.18 1306.67,-1444.18 1301.83,-1444.18 1297,-1439.34 1297,-1434.51 1297,-1434.51 1297,-1424.84 1297,-1424.84 1297,-1420.01 1301.83,-1415.18 1306.67,-1415.18 1306.67,-1415.18 1401.33,-1415.18 1401.33,-1415.18 1406.17,-1415.18 1411,-1420.01 1411,-1424.84 1411,-1424.84 1411,-1434.51 1411,-1434.51 1411,-1439.34 1406.17,-1444.18 1401.33,-1444.18"/>
<text text-anchor="middle" x="1354" y="-1425.98" font-family="DejaVu Sans Bold" font-size="14.00">unwind_exit_</text>
</g>
<!-- return_&#45;&gt;pump__doExits -->
<g id="edge73" class="edge">
<title>return_&#45;&gt;pump__doExits</title>
<path fill="none" stroke="#7f7f7f" stroke-width="2" d="M1413,-219.94C1413,-213.17 1413,-204.83 1413,-197.35"/>
<polygon fill="#7f7f7f" stroke="#7f7f7f" stroke-width="2" points="1415.1,-197.32 1413,-191.32 1410.9,-197.32 1415.1,-197.32"/>
</g>
<!-- stop_&#45;&gt;pump__doExits -->
<g id="edge74" class="edge">
<title>stop_&#45;&gt;pump__doExits</title>
<path fill="none" stroke="#7f7f7f" stroke-width="2.5" stroke-dasharray="5,2" d="M1307.2,-731.58C1358.04,-726.69 1446.69,-714.91 1467,-691 1492.79,-660.64 1472,-641.34 1472,-601.5 1472,-601.5 1472,-601.5 1472,-291.5 1472,-259.64 1481.91,-248.15 1467,-220 1461.63,-209.86 1452.67,-201.34 1443.58,-194.65"/>
<polygon fill="#7f7f7f" stroke="#7f7f7f" stroke-width="2.5" points="1444.66,-192.84 1438.54,-191.13 1442.25,-196.29 1444.66,-192.84"/>
</g>
<!-- pump.exit_1;__;&#45;&gt;pump__doExits -->
<g id="edge72" class="edge">
<title>pump.exit_1;__;&#45;&gt;pump__doExits</title>
<path fill="none" stroke="#7f7f7f" stroke-width="2" d="M1412.62,-16.05C1419.49,-22.81 1429.8,-34.48 1434,-47 1446.52,-84.3 1432.31,-130.28 1421.93,-155.89"/>
<polygon fill="#7f7f7f" stroke="#7f7f7f" stroke-width="2" points="1419.9,-155.3 1419.52,-161.64 1423.77,-156.92 1419.9,-155.3"/>
</g>
</g>
</svg>
